<svg width="368" height="368" fill="none" xmlns="http://www.w3.org/2000/svg"><mask id="a" style="mask-type:alpha" maskUnits="userSpaceOnUse" x="0" y="0" width="368" height="369"><path d="M184 368c101.62 0 184-82.379 184-184C368 82.38 285.62 0 184 0S0 82.38 0 184c0 101.621 82.38 184 184 184Z" fill="#A86252"/></mask><g mask="url(#a)"><path d="M184-181.699h-516.3v655.69H184v-655.69Z" fill="#F3F3FF" stroke="#E0E0E0" stroke-miterlimit="10"/><g opacity=".6" fill="#7451EB"><path opacity=".5" d="M24 100.5a10.403 10.403 0 0 1-5.1 8.1c.05-.532.05-1.068 0-1.6 0-.1-.2-1.5 0-1.6a10.594 10.594 0 0 0 5.1-8.1c-.1 1 .2 2.1 0 3.2ZM17.4 139.1a11.895 11.895 0 0 1-7.8 1.3c.2.1 1.1-.6 1.4-.7.3-.1 1.1-.9 1.4-.8 2.52.439 5.116.053 7.4-1.1l-.5.3-1.9 1ZM7.7 189.499a13.396 13.396 0 0 0 8.6-3 9.71 9.71 0 0 0 0 1.7c0 .2.2 1.4 0 1.6a13.995 13.995 0 0 1-8.6 3v-3.3ZM12 177.299c-3.5-1.6-6.6-4.1-10.7-3.4.2 0-.2-3.2 0-3.2 4.1-.8 7.2 1.8 10.7 3.4.05.533.05 1.068 0 1.6a8.501 8.501 0 0 0 0 1.6ZM59.2 186.9a34.018 34.018 0 0 0-9.5-9 8.501 8.501 0 0 1 0-1.6 8.49 8.49 0 0 0 0-1.599 32.599 32.599 0 0 1 9.5 8.999c.2.3 0 1.3 0 1.6 0 .3-.2 1.4 0 1.6ZM108.5 195.5a18.398 18.398 0 0 1-12 3c-.1 0 0-3.2 0-3.2a18.992 18.992 0 0 0 12-3 8.552 8.552 0 0 0 0 1.6c.05.532.05 1.068 0 1.6ZM84 225.5c-4-2.1-7.8 1.8-10.7 4.3.2-.1 0-1.4 0-1.6 0-.2-.2-1.5 0-1.6 2.9-2.5 6.7-6.4 10.7-4.3.2 0 .1 1.4.1 1.6a8.599 8.599 0 0 0-.1 1.6ZM111.9 176.8a10.978 10.978 0 0 0 2-3.5c.213-.62.38-1.255.5-1.9.077-.327.111-.664.1-1 .083.496.116.998.1 1.5 0-.3-.1-.6-.1-.9 0-.3.1-2.1 0-3.2.5 4.2.2 8.8-2.6 12.2.2-.2 0-1.3 0-1.6 0-.3-.2-1.3 0-1.6ZM177.3 161.301c-2.8 2.3-6.4 3.9-8.1 7.3.05-.532.05-1.068 0-1.6 0-.4-.2-1.3 0-1.6 1.7-3.4 5.3-5 8.1-7.3a8.552 8.552 0 0 0 0 1.6c0 .2.2 1.4 0 1.6ZM190.4 155.999c-3.5-3-6.6-6.7-11.6-6.8v-3.2c5 0 8.1 3.8 11.6 6.8.2.2 0 1.4 0 1.6 0 .2-.2 1.5 0 1.6ZM136.8 126c-1.9 2.8-5.4 3.8-8.6 3.4-.1 0 .1-3.2 0-3.2 3.2.4 6.7-.6 8.6-3.4-.2.2 0 1.3 0 1.6 0 .3.2 1.3 0 1.6ZM119.6 111.401c-4.4.5-8.6 1.8-12 4.7.2-.1 0-1.4 0-1.6a8.552 8.552 0 0 1 0-1.6c3.4-2.9 7.6-4.2 12-4.7-.1 0 .2 3.2 0 3.2ZM72.9 65.1c-3.2 1.2-6.7 2.5-8.6 5.6.2-.3 0-1.3 0-1.6 0-.3-.2-1.3 0-1.6 1.9-3.1 5.4-4.4 8.6-5.6-.3.1.4 3.1 0 3.2ZM40.3 51c1 2.4.9 4.8.9 7.3a14.701 14.701 0 0 1-1.3 6.9c0-.1-.1-.6-.1-.7V63c0-.5-.2-1.7.1-2.1a12.7 12.7 0 0 0 1.2-3.9c.3-1.8.3 3.9 0 1.5 0-.3-.1-.6-.1-1a18.706 18.706 0 0 0-.7-2.2c-.1-.697-.1-1.404 0-2.1V51ZM182.7-6.4c-3.9 1.4-6.7 4.5-9 7.7V-.8c0-.4-.2-1.8.1-2.2 2.3-3.2 5.1-6.3 9-7.7-.05.733-.05 1.468 0 2.2.05.7.05 1.401 0 2.1h-.1ZM162.9 208.899c-6.1-1.8-12.5 3.6-15.4 8.6v-2.2c-.1-.696-.1-1.403 0-2.1 2.9-5 9.3-10.4 15.4-8.6.2 0 .1 2 .1 2.1 0 .1-.1 2.2-.1 2.2ZM64.3 95.4a6 6 0 0 1-.8 5.201l-1.8-1.3a5.498 5.498 0 0 0 .9-5.1c0 .2.7.5.9.6.2.1.8.4.8.6ZM53 100.9a6.7 6.7 0 0 0-.5 3.7c0-.3-.8-.4-.8-.7a6.401 6.401 0 0 1 .4-3.6l.9.6ZM71.2 140.401c.9 1.7 2.3 3.3 1.9 5.3 0-.1-.9-.4-.9-.6.4-2-1-3.7-1.9-5.4.2.3.7.4.9.7ZM72.5 162.9c-1.9 0-3.9-.1-5.2 1.5 0 0-.8-.7-.8-.6 1.3-1.7 3.2-1.6 5.1-1.5.3 0 .6.6.9.6ZM128.1 243.501c1.9-.5 3.8-.9 4.6-2.9l1 .4c-.8 1.9-2.7 2.4-4.5 2.9-.3 0-.8-.5-1.1-.4ZM66.7 160.901c-3 0-7.9-2.2-10.1.9l-2.6-1.9c2.2-3.1 7.1-.9 10.1-.9.457.301.892.635 1.3 1 .2.2 1 .9 1.3.9ZM15.2 91.7a5.6 5.6 0 0 1-1.5 3.2s-.8-.7-.8-.6a7.7 7.7 0 0 0 1.5-3.3c-.1.2.9.5.8.7ZM30.7 79.2a5.2 5.2 0 0 1-3.9 1.3c-.3 0-.6-.6-.9-.6a5 5 0 0 0 3.9-1.3c.1-.1.8.7.9.6ZM162.6 20.501h-2c.1 0 .3-.4.3-.4s.2-.5.3-.5h1.9c-.1 0-.2.4-.3.4l-.2.5ZM48.2 226.001l-2 .2c.1 0 .3-.4.3-.5 0-.1.2-.4.3-.4l1.9-.2-.3.5-.2.4ZM88.7 4.8c1.8.7 3.1 2.2 4.8 3 1.7.8.5.6-.1.3s-2.9-2.3-4.6-2.9c-1.7-.6-.8-.7-.1-.4ZM143.4 17.3a5.5 5.5 0 0 0-1.1 3.3c0 .4-.8 1.1-.8.4a8.608 8.608 0 0 1 1.5-4.3c.1-.1.4-.3.6-.1.2.2-.1.5-.2.7ZM156.8 37.1a13.997 13.997 0 0 1-7.7-4.6c-.8-1 1.6-3.2 2.3-2.3a12.2 12.2 0 0 0 7.3 4.4c1.2.2-.7 2.7-1.9 2.5ZM106.3 139a8.601 8.601 0 0 0-4.1 4.7c0 .2-2.1-.4-2.1-.5a8.601 8.601 0 0 1 4.1-4.7c.378-.029.757.04 1.1.2l1 .3ZM160.2 134.4a15.418 15.418 0 0 0-3.6-3.6c-.2-.1.6-.3.7-.3.1 0 1-.3 1.3-.1a14.524 14.524 0 0 1 3.7 3.7l-1 .3c-.2.1-1 .2-1.1 0ZM183.7 124.701c-1.5-1.2-2.8-3.4-4.9-3.3-.6 0-.6-.4 0-.4 2.7-.1 4 2.1 5.9 3.6.1 0-.8.3-1 .1ZM170.5 182.7a6.309 6.309 0 0 1 .2 5.2c0 .1-1-.4-1-.5a5.406 5.406 0 0 0-.2-5.1c.1.1.8.2 1 .4ZM121.7 174.101l-1.9 1.2c-.5.4-1.3-.3-.7-.6l1.9-1.3c.5-.3 1.3.3.7.7ZM123.4 188.899c-1.8-1.1-3.8-2.6-4.5-4.7-.2-.3.5-1.1.7-.8.7 2.1 2.6 3.5 4.4 4.7 1.8 1.2-.3 1-.6.8ZM155.8 148.2a43.27 43.27 0 0 1-4.9 2.2c-.5.2.4-.5.5-.5a31.136 31.136 0 0 0 4.5-2.1c.7-.3.2.2-.1.4ZM47.7 143.9c-1.6 1.4-3.2 2.4-5.3 2.3-2.1-.1.3-.3.5-.3s2.8-1.2 3.7-2c.9-.8 1.1 0 1.1 0ZM110.8 19.8v1.5a.9.9 0 0 1-.3.5l-.5.3v-1.5c0-.2.3-.4.4-.5l.4-.3ZM157.4-2c.2 2.1-.6 4-1.3 5.9-.1.3-1.1-.1-.9-.4.6-1.9 1.4-3.7 1.2-5.7 0-.4 1-.1 1 .2ZM184.5 26.7l-3.4 3.2a1.499 1.499 0 0 1-.7.3c-.2 0-.1-.3 0-.4l3.4-3.2c.2-.2.4-.4.7-.3.3.1.1.3 0 .4ZM30.3 206.799a6.002 6.002 0 0 0-1.7-3.6c-.1-.1.4-.1.4-.1a.9.9 0 0 1 .7.3 7.004 7.004 0 0 1 1.7 3.7c0 .2-1 0-1.1-.3ZM23 161.7c-.9 1.8-.6 4.8 1.9 4.6.1 0-.4.8-.6.8-2.7.2-3-2.9-2-4.8.113-.213.287-.387.5-.5 0-.1.3-.3.2-.1ZM184 65.1a36.299 36.299 0 0 0-6.5-.9 11.4 11.4 0 0 0-6.2 2l-1.3-1c-.1 0-1.2-1-1.3-.9a11.4 11.4 0 0 1 6.2-2 36.29 36.29 0 0 1 6.5.9c.471.242.908.544 1.3.9.362.418.804.758 1.3 1ZM144.8 57.4c-.935.44-1.983.58-3 .4l-.3-.2-1-.7-.9-.7-.4-.3a4.4 4.4 0 0 0 3-.4c.2-.1 1.2.9 1.4.9l1.2 1ZM154.4 102.8c-1.3 1.6-2 3.7-3.7 5-.2.2-2.3-2.1-2.6-1.9 1.7-1.3 2.4-3.4 3.7-5l2.6 1.9ZM164.6 72.201c2.1.2 4.3.6 6-.8 1.7-1.4 2.4 2 2.6 1.8-1.7 1.5-3.9 1.1-6 .9-.3 0-1-.7-1.3-.9-.3-.2-.9-1-1.3-1ZM66.9 4.001a12.599 12.599 0 0 0-.2 6.4 6.004 6.004 0 0 0-1.3-.9c-.2-.2-1.3-.7-1.3-1a12.6 12.6 0 0 1 .2-6.4c-.1.3 2.7 1.5 2.6 1.9ZM76.8 44.501c-2.4 1.3-4.3 3-7.1 1.7-1-.4-1.7-1.4-2.6-1.9 2.8 1.3 4.7-.3 7.1-1.7l1.3 1c.1 0 1.2 1 1.3.9Z"/></g><path d="M209.6 262.301c-1.6-38.6-16.9-69.2-34.1-68.3-17.2.9-30 32.8-28.4 71.3 1.6 38.5 16.8 69.1 34.1 68.3 17.3-.8 30-32.8 28.4-71.3Zm-28.7 63.6c-13.9.6-26.4-26.6-27.8-60.9-1.4-34.3 8.8-62.6 22.7-63.3 13.9-.7 26.4 26.6 27.8 60.9 1.4 34.3-8.8 62.6-22.7 63.3Z" fill="#A2A6E2"/><path d="M210.7 263.7c-1.8-40.2-19.2-72.1-38.7-71.2-19.5.9-34 34.2-32.1 74.4 1.9 40.2 19.1 72.2 38.7 71.3 19.6-.9 33.9-34.2 32.1-74.5ZM179.1 327c-14.5.7-27.6-27.2-29.2-62.3-1.6-35.1 8.9-64.1 23.4-64.7 14.5-.6 27.5 27.2 29.1 62.3 1.6 35.1-8.8 64-23.3 64.7Z" fill="#474BB4"/><path d="m193.9 215.8-9 38 17-9 1.6 10.6-18.3 7.3a9.695 9.695 0 0 1 .6 4.1c.5.4 17.7 24.7 17.7 24.7l-2.5 8.8-15.8-16.6 8.1 45.4-7.2 4-9.3-32.5-5.1 31.8s-4.8-1.7-5.2-2.5c-.4-.8 3.1-45.1 3.1-45.1l-14.7 24.6-4.4-19.2-.7-4.8 18.5-19.2-20.3-4.3 1.8-9.6 19.3 7.5-20.9-27.5 7.5-15.8 13.8 24.3-5.7-45.7 8.4-2.3 7.5 46.9 8.6-32.3 5.6 8.4Z" fill="#474BB4"/><path d="M213 262.8c-1.9-42.999-20.5-76.999-41.4-76.099-20.9.9-36.4 36.5-34.5 79.5C139 309.2 157.6 343.2 178.5 342.2s36.4-36.5 34.5-79.4Zm-34.9 70.8c-16.9.8-32-29.6-33.7-67.8-1.7-38.199 10.6-69.699 27.6-70.499 17-.8 32 29.6 33.7 67.8C207.4 301.3 195 332.9 178.1 333.6Z" fill="#7451EB"/><path d="M92.5 240.5s23.9 3 40.8 4.3c16.9 1.3 37.4-1.3 54.3-5.9 16.9-4.6 22.5-7 25.6-5.9 3.1 1.1 4.9 4.7-3.9 7.4s-17.8 7.8-36.2 9.1c-18.4 1.3-54.8 4.3-75.9-1-1.4-.5-4.7-8-4.7-8Z" fill="#A2A6E2"/><path d="M137.2 123.501c.3-.4 9.1-1.7 10 5.1.9 6.8.7 37.6 2.1 43.2 1.4 5.6 10.5 5.7 14.1 5.6 3.6-.1 29.4-2.5 30.1-2.3.7.2 3.6-.7 4.2 6.3.6 7 1.9 43.2 1.9 43.2s-53.1-.2-53.7 0c-.6.2-2.8-52.3-3.1-65.9-.3-13.6.3-27.6-1.6-29-1.9-1.4-5.9-2.5-4-6.2Z" fill="#BEBAF7"/><path d="M162.7 179.3s-1.9.6-1.8-3c.1-3.6-.8-5.1 7.2-6.3 8-1.2 23.1-1.9 27.2-1.4 4.1.5 6.2 1.7 6.2 4s-.2 4.2-4.8 4.4c-4.6.2-28.1 1.6-34 2.3Z" fill="#A2A6E2"/><path d="M196.4 176.5s-3.5-.7-4.3-.7c-.8 0 1.8 43.7 1.8 47.1 0 3.4-2 7.9.6 8.9s5.1 2.8 5.4-.3c.3-3.1-.6-56.2-3.5-55Z" fill="#A2A6E2"/><path d="M197 198.5a2.695 2.695 0 0 0-2.254.697 2.705 2.705 0 0 0-.846 2.203c-.1 2.4 1.2 4 4.4 3.8 3.2-.2 8.2-.2 10.7.5s3.4 3.7 3.2 13.9c-.2 10.2 0 32.6 0 32.6s-3.4 1.3-1.6 7.8c1.3 2.6.6 27.9.9 28.5.3.6-3.2 15.6-2.6 17.4.6 1.8 6.7 9.7 9.7 6 3-3.7 3.6-10.6 3.7-16.8.1-6.2-.9-29.1-.9-29.1l12.5 46.8c1.5 5.7 2.1 15.9 2.5 18.4.4 2.5 5.1 7.8 6.7 4.9 1.6-2.9.4-8.2-1.6-20.2s-11.9-49-13.3-53.2c-1.4-4.2-3.9-9.1-10-10.5-.2-4.3.8-29.7.7-39.2-.1-9.5-3.7-14.2-8.5-14.5-4.8-.3-13.4 0-13.4 0Z" fill="#BEBAF7"/><path d="m188.5 228.001 33.9 1.7v6l-34.8-1.5.9-6.2Z" fill="#BEBAF7"/><path d="M222.4 235.701c1.325 0 2.4-1.344 2.4-3 0-1.657-1.075-3-2.4-3-1.326 0-2.4 1.343-2.4 3 0 1.656 1.074 3 2.4 3Z" fill="#A2A6E2"/><path d="m196.2 315.502 1.4 15-9.6-1.7-1.7 6 10.3.9-9.3 10.5 4.4 5.6 9.4-13.4 1.7 17.3 6.3-3.5-3-14.7 10 3.3 1.5-7.3-9.8-.8 8.5-10-5.2-6.2-8 13.3-2-15.9-4.9 1.6Z" fill="#474BB4"/><path d="M195.8 309.402c12-2.4 24.8 7.099 28.6 21.199 3.8 14.1-3 27.3-15 29.6-12 2.3-24.9-7.2-28.7-21.2-3.8-14 3-27.299 15.1-29.599Zm-7.6 27.899c2.4 9.1 10.4 15.3 17.8 13.9 7.4-1.4 11.3-9.9 8.9-19-2.4-9.099-10.3-15.199-17.7-13.799-7.4 1.4-11.4 9.899-9 18.899Z" fill="#7451EB"/><path d="M206.7 334.801c-.1 3.5-6.7 4-9.9 3.3-3.2-.7-1.5-4.8.7-10.3 2.2-5.5 9-18.8 9-18.8l5.6 1.2-8.9 20.7s3.6-.3 3.5 3.9ZM243 334.001s9.9-3.3 14.9-3.4c5-.1 5.5 1.7 5.6 5.6.1 3.9 3.3 6.2-4.6 8-7.9 1.8-47.6 6.9-51.1 7.2-3.5.3-5 1.8-5.3 0-.3-1.8-1.8-2.9 1.9-3.9s11.6-2 20.2-3 17.6-7 18.4-10.5Z" fill="#A2A6E2"/><path d="M186 199.501c.5 0 15.5-.3 22.1 22.8 6.6 23.1 21 87.3 21 87.3s-12.7 10-16.2 9.8c-3.2-6.1-15.1-33.1-22.4-51.3-7.3-18.2-11-31.6-12.3-43.1-1.3-11.5-3.1-24.5 7.8-25.5Z" fill="#EE685F"/><path d="M229.1 309.6a13.31 13.31 0 0 0-9.8 2.9c-5 3.8-7.1 5.9-6.4 6.9.7 1 2.9 6.4 3 8.9.1 2.5-.1 4.7 1 6.8 1.1 2.1 7.8 4.2 14.5.6s8.5-13.4 8.5-13.4-6.1-1.2-8-4.7a31.783 31.783 0 0 1-2.8-8Z" fill="#EDA991"/><path d="M266.9 337.7a5.2 5.2 0 0 0 .8-6.3c-1.9-3.7-9.5-4.1-15.8-6-6.3-1.9-15.2-4.1-15.2-4.1s-5.8 2-7 4.8c-1.2 2.8-6.9 8.4-9.6 7.1a10.4 10.4 0 0 1-4.1-3.7v10.4c-.1 2.7-.7 4.9 0 6a4 4 0 0 0 1.6 1.6s3.1-1.8 12.1-2.4c9-.6 34.2-4.7 37.2-7.4ZM76.5 114.201s5.7-6.2 9.5-26.5 2-34.3 21.6-38.9c1.3-2.9 12.4-4.9 20.3 4.8s9 23.8 8.2 33.2c-.8 9.4 1.7 22.9 8.4 32.1 6.7 9.2-22.6 11.6-41.1 7.6s-26.9-12.3-26.9-12.3Z" fill="#003668"/><path d="M96.9 92.1s2.1 7.7-3 12.401c-5.1 4.7-9.4 5-14.1 5.3-4.7.3-11.8 1.4-18.1 12.2-6.3 10.8-.9 41.3-.9 45.3s.6 16.9 10.6 17.6c10 .7 17.1-4 24.6-3.9 7.5.1 40.9 7.6 44.6 11.6 3.7 4 10.6 10.6 16 6.1s8.4-8.6 6.9-16.8c-1.5-8.2-8.4-19-9.1-29.4-.7-10.4 2.2-27.9-7-35.8-9.2-7.9-22.4-5.7-27.3-11.2 0-2.9.4-11.5.5-12.2.1-.7-23.7-1.2-23.7-1.2Z" fill="#EDA991"/><path d="M78.2 109.901s4.3 1.6 4 10.5c-.3 8.9-1.9 53.5-4.9 66.2-3 12.7-5.4 23.8-5.6 33.8-.2 10-1.2 4.3 15.9 0s53.5-13 58.7-11.9c5.2 1.1 5.6-3.9 1.6-14-4-10.1-8.6-15.2-8.4-22.2.2-7 4.2-10.3 4-18.7-.2-8.4-4.3-20.3-4.5-29.7-.2-9.4-2-12.4-2-12.4s-2.1-2-3-.8c-.9 1.2-9 11.5-24.8 9.2-15.8-2.3-23.8-9.3-27.6-10.2-3.8-.9-3.4.2-3.4.2Z" fill="#7451EB"/><path d="M116.4 170.001s13.2 3.3 10.2 10.9c-4.5 11.3-25.3 11.9-33.9 17.7-8.6 5.8-19.3 17.8-20 25.6 8.3.7 79.8-11.8 81.7-13.8 1.9-2-1.1-10.7-3.8-20.3-2.7-9.6-9.7-20.6-7.5-30-3.6 5.2-26.7 9.9-26.7 9.9Z" fill="#474BB4"/><path d="M112.1 210.3c.9-.9 33.4-9.3 50.8-10.9 17.4-1.6 25.9-1.1 32 4.7 6.1 5.8 8.6 25.9-2.3 31.3-10.9 5.4-18.3 11.2-31.4 11.9-13.1.7-28.8 2.4-34.1 0-5.3-2.4-25.5-26.1-15-37Z" fill="#EE685F"/><path d="M72.9 223.601s1.4-7.6 19.6-14.9c18.2-7.3 36.4-10.2 47.2-7.7 10.8 2.5 16.2 14.5 14.3 27.2-1.9 12.7-10.2 19.2-27.8 18.5-17.6-.7-43.3-1.5-48.7-5.5-5.4-4-7.4-11.7-4.6-17.6Z" fill="#EE685F"/><path d="M133.8 123.3s-4.9 9-21.7 12.3c7.1 1 19.3.2 21.7-12.3ZM143.5 152.8c0 .3-.7 11.1-9.7 12.8-9 1.7-40.5-3.4-42.2-3.6-1.7-.2 23.1 8.7 33.6 9.7s16.1-1.7 17.6-7.1c2.2-7.9.7-11.8.7-11.8Z" fill="#474BB4"/><path d="M148.6 117.9s6.1 6.6 4.5 24.9c-.7 7.8.7 14.8 2 21a41.34 41.34 0 0 1 .9 4.6c1.2 6.3 3.8 8.2-3.1 8.9-9.3 1 5.3 21.3 5.3 21.3s5.4-1.7 5.7-12.9c.3-11.2-8.2-21.5-8.1-35.3.1-13.8.2-23.5-7.2-32.5Z" fill="#D38879"/><path d="M97.2 94.2c.3.4 3.6 14.001 14.5 14.701 7 .4 8.4-4.1 8.4-4.1s.2-6.5.8-8.3c.6-1.8-23.7-2.3-23.7-2.3Z" fill="#C97D6B"/><path d="M106.5 56.7a12.796 12.796 0 0 1-5 7c-3.9 2.8-4.8 4.1-5.3 6.6s-2.1 7.4-2.1 7.4-.6-5.1-2-4.9c-1.4.2-2.8 2.3-2.3 6s1.8 5.7 2.8 5.5c1-.2 1.3-.5 1.3-.5s-.1 4.9 1.5 7.7a32.202 32.202 0 0 0 6.7 8.3c3 2.301 7.5 4.101 11.9 2.101s8-4.8 9.6-7.8a41.462 41.462 0 0 0 2.9-6.8s1.4 1.1 2.3-1.3c-.8-2.5 1.9-2.8 0-5.9-.1-.2-1.4 4-1.5 3.8-.1-.2.8-6.2.7-6.5-1.2-3.6-2-9.7-2.3-11.5-.3-1.8-4.6-4.4-9.9-5.6-5.3-1.2-7.4-1.4-9.3-3.6Z" fill="#EDA991"/><path d="M99.9 70c.7-.1 4-1.5 6.2-.9l2.8.9c.7.2 1.2-.1.4-.6a7.199 7.199 0 0 0-4.9-1.3 18.892 18.892 0 0 0-4.6 1.1c-.7.4-.4.8.1.8ZM118 71.101c-.6 0-.7.6.3.7 1 .1 3.8-.1 5.1.9 1.3 1 2.6 2.4 3 2.3.4-.1-.1-1.1-1.7-2.4-1.6-1.3-2.1-1.6-6.7-1.5ZM107.4 74.7c.3.3.4-.1.2-.4a3.793 3.793 0 0 0-3.4-1.9c-2.2-.1-4 .2-4.1.5-.1.3 1.2.7 2.2.5 1-.2 2.4-.9 5.1 1.3ZM117.9 75.6c-.6.4-1.3.7-.1.6 1.2-.1 2.7-.8 4 0 1.3.8 1.2.9 1.5.9a1.703 1.703 0 0 0 1.5-.2 8.001 8.001 0 0 0-4-2.1 5.897 5.897 0 0 0-2.9.8Z" fill="#003668"/><path d="M117.2 76.6c-.1-.1.2 1.8 3.7.8a9.204 9.204 0 0 1-3.7-.8ZM107.4 75a6.6 6.6 0 0 1-3.2-.1c.4.3 2 1.4 3.2.1ZM107.6 74.2c0 .2-.2-2.8-4.5-2.9 2.2-1.1 5 .4 4.5 2.9ZM110.6 72.8c0-.1.4 3.8-1.3 6.3 1.5-1.7 2.4-3.5 1.3-6.3ZM106.9 81.7s1 1.2 2.1.8c1.1-.4 3.1 2.3 5.1 1.2a1.207 1.207 0 0 0 1.08.245 1.191 1.191 0 0 0 .82-.744 1.797 1.797 0 0 1-1.8 1.5 3.595 3.595 0 0 1-3.301.802A3.6 3.6 0 0 1 108.4 83.2c-1.5-.6-1.5-1.5-1.5-1.5ZM101 88.1a4.004 4.004 0 0 1 2.7-4.2c-3 .4-3.7 1.9-2.7 4.2ZM118.5 87.2a8.097 8.097 0 0 1 1.2 2 4.2 4.2 0 0 1-.1 2.1c-.1.1 2.1-2-1.1-4.1Z" fill="#C97D6B"/><path d="M102.5 86.001s2 7.1 7.5 7.6 9.1-4.5 9.1-4.5a10.898 10.898 0 0 1-6.3-1.9c-.4.4-3.3-.3-3.7-.8-.4-.5-4.2.5-6.6-.4Z" fill="#EE685F"/><path d="M102.8 86.2a7.801 7.801 0 0 0 4.9 1.6c3.1 0 4 .3 5.4.9 1.4.6 4.3.7 5.7.6-1 .4-3.8 3-9.3 2-5.5-1-6.7-5.1-6.7-5.1Z" fill="#003668"/><path d="M105.8 88.4a9.9 9.9 0 0 0 9 1.6 26.03 26.03 0 0 1-3.4-1.1c-.8-.4-5-.5-5.6-.5Z" fill="#fff"/><path d="M117.1 75.6s.4-3.3 4.7-2.1c-1.9-.6-4.5 1.6-4.7 2.1ZM91.6 74.9a2.6 2.6 0 0 1 .9 2.2c0 1.7.3 2.2-.3 2.6-.6.4-.3 2.5-.3 2.5-.351-.9-.586-1.841-.7-2.8-.2-1.3 1.6-.4.7-1.7-.9-1.3-1-2.7-.3-2.8Z" fill="#C97D6B"/><path d="M139.6 231.5c3 0 35.6-1.1 38.6-6.5s4.9-4.2 8.5 11.6c3.6 15.8 24.6 74.1 29 78.8-1.4 1.3-3.2 3.2-2.8 4 .4.8-13.5-28.8-19.8-44.8-6.3-16-9.7-25.1-11.6-32.6-1.5.6-10.9 5.1-22.2 5.6l-20.1.9.4-17ZM75.9 218.9s-3.4 8.9 9.9 12c13.3 3.1 28.7 1.2 33.6-10.7 3 8.3 8.7 26.1 8.7 26.1s-20.1.7-33.5-.9c-13.4-1.6-20.3-2.6-22.5-11.5-2.2-8.9 2.9-14.1 3.8-15Z" fill="#CD5B51"/><path d="M134.9 203.2c5.6-.2 18.9.2 19.5 16.5.6 16.3-8.3 57.1-8.6 73.1a238.144 238.144 0 0 0 1.4 29.9l-19.3 5.6s-2.4-14.5-5.2-33.7c-2.8-19.2-4.7-30.9-4.8-53.5-.1-22.6 3-37.3 17-37.9Z" fill="#EE685F"/><path d="M127.6 327a16.194 16.194 0 0 1 9.8-5.7c6.3-.9 9.6 0 9.6 0s.9 5.7 4.1 9.1c3.2 3.4.3 9.7-6.5 11.8-6.8 2.1-17.4 3.9-18.1.8-.7-3.1.7-11.5 1.1-16Z" fill="#EDA991"/><path d="M126.8 334.4s-1.2 6.3 4.3 6.8 6.4-1.2 8.3-4.6c1.9-3.4 10-6.7 12.3-6.1 2.3.6 5.4 2.7 11.1 3.4 5.7.7 11 5.6 11.9 8.8.9 3.2-2.2 7-7.1 8.7-4.9 1.7-22.5 4.7-33.1 4.9-10.6.2-12.7-.6-12.1-6.5a54.628 54.628 0 0 1 4.4-15.4Z" fill="#003668"/><path d="M153.2 212.9s-5.2 33.6-9.2 52.9c-4 19.3-.8 55.1-.8 55.1l3.8.4a187.532 187.532 0 0 1 .2-38.9c2.3-20 5.5-37.7 6.6-46.3 1.1-8.6 1.5-18.2-.6-23.2Z" fill="#CD5B51"/><path d="M86.2 303.799s-4.6.3-7.4 7.9c-2.8 7.6-9.8 37.3-10.3 39.5-.5 2.2-1.1 4.3 6.1 6 7.2 1.7 8.4 1.3 9 1.4.6.1 2.6-8 2.6-8l-10.5-2.5 7.3-29.9c1.2-4.5 3.2-9.1 6.6-10.2 3.4-1.1 1.4-4.5-3.4-4.2Z" fill="#A2A6E2"/><path d="m71.9 334.799 1.4 14.9-9.6-1.6-1.7 5.9 10.3 1-9.3 10.4 4.4 5.6 9.3-13.4 1.8 17.3 6.3-3.4-3-14.7 10 3.2 1.4-7.2-9.8-.8 8.6-10-5.3-6.2-8 13.2-2-15.9-4.8 1.7Z" fill="#474BB4"/><path d="M60.3 273.8c.5-.4 14.4-27.5 14.4-30.9 0-3.4-14.4-6-14.4-6v36.9Z" stroke="#474BB4" stroke-miterlimit="10"/><path d="m67.4 184.4 6.5 1s.8.4.8 4.1v51.6s-6.1 1-6.4 0c-.3-1-2.9-30-2.9-38 .188-6.275.857-12.527 2-18.7ZM44.8 117.8s-10.2 3.2-12 4.4c-1.8 1.2-2.5 8.6 1.5 8.6s2-1.6 7-3 7.6-.6 8.2-2.4c.6-1.8.6-7.7-4.7-7.6Z" fill="#A2A6E2"/><path d="M52.6 123c-1-3.6-3.6-5.1-6.7-4.2-3.1.9-1.4 5.7.3 5.5 1.7-.2 1.7.6 2.2 4.1.5 3.5 5 55 4.2 56.4-.8 1.4-8.2 22.2-8.2 22.2l16.4 36.5 36.4 5v-7.4l-26-3.1s-2.1-.1-2.1-3-.8-49.9-.8-49.9l-10.6-8.5s-3-46.2-5.1-53.6Z" fill="#BEBAF7"/><path d="M97.2 248.499c1.601 0 2.9-1.657 2.9-3.7s-1.299-3.7-2.9-3.7c-1.602 0-2.9 1.657-2.9 3.7s1.298 3.7 2.9 3.7Z" fill="#A2A6E2"/><path d="M62.3 282.699c-1.4-57.1-8.8-81.6-25.6-86-9.8-2.5-22.1 7.3-29.8 59.8-7.7 52.5 14 96.3 25.5 97.8s31.2-14.5 29.9-71.6Zm-29.4 59.3c-10.1 0-18.3-29.4-18.3-65.5s8.2-65.5 18.3-65.5c10.1 0 18.3 29.3 18.3 65.5s-8.2 65.5-18.3 65.5Z" fill="#474BB4"/><path d="m17.2 219.199 10 47.5-16.3-9.3v3.3l15 12.3a9.2 9.2 0 0 0-.2 4.2c-.5.4-12.9 30.8-12.9 30.8l1.8 3.8 12.6-17.7-4.3 46 6.5 3.5 6-33.2 6.3 31.6s4-2.1 4.3-2.9c.3-.8-5.4-45-5.4-45l14.1 23.6v-25.5l-14.1-16.8 17.1-5.8-2.1-9.5-16 8.9 16.2-29.1-7.3-15.3-10.4 25.4 2.1-46.2-7.3-1.8-3 39.5-8.9-25.9-3.8 3.6Z" fill="#474BB4"/><path d="M36.7 193.999c-17 0-30.7 36.7-30.7 82s13.7 82 30.7 82 30.7-36.7 30.7-82-13.7-82-30.7-82Zm-2.9 158c-13.8 0-25-34.1-25-76s11.2-76.1 25-76.1 25 34.1 25 76.1c0 42-11.2 76-25 76Z" fill="#7451EB"/><path d="M27.9 203.8c-14 0-25.3 32.8-25.3 73.4 0 40.6 11.3 73.4 25.3 73.4s25.4-32.9 25.4-73.4c0-40.5-11.4-73.4-25.4-73.4Zm-1.4 139.4c-11.4 0-20.6-28.4-20.6-66s9.2-66.1 20.6-66.1c11.4 0 19.7 28.5 19.7 66.1 0 37.6-8.3 66-19.7 66Z" fill="#A2A6E2"/><path d="M28.4 281.499c1.657 0 3-3.447 3-7.7s-1.343-7.7-3-7.7-3 3.447-3 7.7 1.343 7.7 3 7.7Z" fill="#A2A6E2"/><path d="M71.9 199.2h7.7s10.3-1.9 11 9.3c.7 11.2 1.2 44 1.2 44l8.3 3.9c4.5 1.899 10.2 5.799 10.6 17.399.4 11.6 5.4 65.9 5.4 65.9s4.2 7.9 7 10c2.8 2.1-9.4 12.6-11.2 12.2-1.8-.4-1.6-2.8-2.3-17.3-.7-14.5-5.7-66.8-5.6-70.8.1-4 0-5.9-2.4-7-2.4-1.1-7.3-3.299-7.3-3.299l1.7 42.299s-5.9.9-8.6.2a4.1 4.1 0 0 1-2.9-3.299s-.6-87.4-.7-89.8c-.1-2.4-1-7.2-5-7-4 .2-6.5 0-6.5 0s-2.2-.4-2.2-3.3 1.8-3.4 1.8-3.4Z" fill="#BEBAF7"/><path d="M123.6 350.099s-1.9-2.6-4.6-1.9c-2.7.7-8.3 4.8-8.5 9.8-.2 5 1.7 8 9.5 7.3 7.8-.7 48.8-8.1 51.8-8.5 3-.4 5-1.7 4.6-4.6-.4-2.9-4-2.4-7.5-1.9s-30.7 5.3-35.9 4.6c-5.2-.7-7.4-1.3-9.4-4.8Z" fill="#A2A6E2"/><path d="M83.6 324.4c-12.1-2.7-24.9 8.2-28.7 24.2-3.8 16 3 31.3 15 33.9 12 2.6 24.9-8.2 28.7-24.3 3.8-16.1-3-31.2-15-33.8Zm7.5 32c-2.4 10.4-10.4 17.4-17.7 15.8-7.3-1.6-11.4-11.3-9-21.7 2.4-10.4 10.4-17.4 17.7-15.8 7.3 1.6 11.4 11.3 9 21.7Z" fill="#7451EB"/><path d="M84.5 301.699s6.6 2 11.4.8c2.8 2.6 2.7 11 1.3 18.2-1.4 7.2-8.4 32.8-8.4 32.8s-1.1 5.7-5.2 5.1c-4.1-.6-2.3-5.5-1.2-9.6 1.1-4.1 6.9-28.2 7.6-30.6.7-2.4 1.5-9.4-1.9-10.3-3.4-.9-4.2-1.8-3.6-6.4Z" fill="#BEBAF7"/><path d="M135.8 157s3.7 4.499 3.8 5.799c.1 1.3-4.7 2.3-5.1 1.5-.4-.8-1.9-7.299 1.3-7.299ZM47.8 157.201c-.2-.2-3.2-5.1-4.6-5.1-1.4 0-2 1.4-1.5 2.9s.7 6.6 2.9 6.8c2.2.2 4-3.3 3.2-4.6Z" fill="#D38879"/><path d="M135.4 131.8a.994.994 0 0 0-.5-.8l-.5-.2-87.3.8c-.2.1-.4.1-.6.3a.802.802 0 0 0-.4.7l.6 60.8a1.002 1.002 0 0 0 .4.8l.6.2 87.3-.8.5-.2a.902.902 0 0 0 .4-.8l-.5-60.8Z" fill="#02C1B7"/><path d="m109.5 162.7 25.4-31.7-.5-.2-87.3.8c-.2.1-.4.1-.6.3l26.2 30.6-25.6 31.7.6.2 87.3-.8.5-.2-26-30.7Z" fill="#00E2DC"/><path d="m131.213 135.718-81.297.709.468 53.598 81.297-.709-.468-53.598Z" fill="#7451EB"/><path d="m53.4 138 .4.9.9.1-.7.6.2.9-.8-.4-.8.5.1-1-.7-.6 1-.1.4-.9Z" fill="#fff"/><path d="m52.2 143.1.2 19.9v19.8a5.203 5.203 0 0 1 5.2 5.1l33.6-.4 33.5-.3a5.096 5.096 0 0 1 1.9-3.9l-70.8-41.9a5.005 5.005 0 0 1-3.6 1.7Z" fill="#F3F3FF"/><path d="m124.4 137.4-33.6.3-33.6.3a5.1 5.1 0 0 1-1.3 3.4l70.8 41.9a5.304 5.304 0 0 1 3.2-1.2l-.2-19.8-.2-19.9a4.992 4.992 0 0 1-3.6-1.429 4.986 4.986 0 0 1-1.5-3.571ZM128.1 137.3l.5.9.9.1-.7.6.2.9-.8-.4-.9.5.2-.9-.7-.7.9-.1.4-.9ZM53.8 185.101l.4.9.9.1-.6.6.1.9-.8-.4-.8.5.1-1-.6-.6.9-.1.4-.9ZM128.6 184.4l.4.9.9.1-.7.6.2.9-.8-.4-.8.5.1-.9-.6-.7.9-.1.4-.9Z" fill="#fff"/><path d="m81.9 164.5-5.1 14.7 5.5-1.1 3.6 4.3 5.2-14.7-4.6-1.6-4.6-1.6Z" fill="#00E2DC"/><path d="m100.1 164.3 5.5 14.6-5.6-1-3.5 4.4-5.4-14.6 4.5-1.7 4.5-1.7Z" fill="#00E2DC"/><path d="m90.9 145 .7-.6.7.7.9-.6.6.8.9-.5.5.9.9-.4.5.9.9-.3.4 1 1-.3.2 1 1-.1.2 1.1h1v1l1 .1-.1 1 1 .2-.2 1 1 .4-.3.9 1 .4-.4 1 .8.5-.5.9.9.6-.6.9.8.6-.7.8.7.8-.8.7.6.8-.8.6.5.9-.9.5.5 1-1 .4.3 1-.9.3.2 1-1 .3.1 1-1 .1v1l-1.1.1-.1 1-1-.1-.2 1-1-.2-.3 1-1-.3-.4.9-1-.4-.5.9-.9-.5-.6.8-.8-.6-.7.8-.8-.7-.7.7-.7-.7-.9.6-.6-.8-.9.5-.5-.9-.9.4-.5-.9-1 .3-.3-1-1 .2-.2-1-1.1.1-.1-1h-1v-1l-1-.1v-1l-1-.2.2-1.1-.9-.3.3-.9-1-.5.4-.9-.9-.5.5-.9-.8-.6.6-.9-.8-.7.7-.7-.7-.8.8-.7-.6-.8.8-.6-.5-.9.8-.6-.4-.9 1-.4-.4-1 1-.3-.2-1 1-.3-.1-1 1-.1v-1.1h1l.1-1 1.1.1.2-1 1 .2.3-1 1 .3.4-.9.9.4.6-.9.9.5.6-.8.8.5.7-.7.8.6Z" fill="#7451EB"/><path d="m70.093 156.352-12.9.112.009.92 12.9-.112-.009-.92ZM70.218 159.25l-12.9.113.009.92 12.9-.113-.009-.92ZM66.443 162.084l-9.1.08.008.92 9.1-.08-.008-.92ZM69.268 164.957l-12 .105.009.92 12-.105-.009-.92ZM66.793 167.78l-9.5.083.008.92 9.5-.083-.008-.92ZM120.587 155.911l-9.2.081.008.92 9.2-.081-.008-.92ZM124.312 158.778l-12.899.112.008.92 12.899-.112-.008-.92ZM123.537 161.584l-12 .105.008.92 12-.105-.008-.92ZM118.762 164.526l-7.3.063.008.92 7.3-.063-.008-.92ZM121.986 167.299l-10.499.091.008.92 10.499-.092-.008-.919Z" fill="#BEBAF7"/><path d="M98.2 158.8a7.9 7.9 0 0 0-2.5-5.8 8.198 8.198 0 0 0-10.1-.9c-.3.2-.3.2-.1.5.2.3 1.5 1.7 2.3 2.6a.401.401 0 0 0 .5.2 3.895 3.895 0 0 1 3.834.055 3.904 3.904 0 0 1 1.933 3.312A3.899 3.899 0 0 1 88.4 162.3c-.3-.1-.4-.1-.5.1l-2.3 2.8c-.2.2-.2.3.1.4a7.8 7.8 0 0 0 5.4 1.3 8.202 8.202 0 0 0 7.1-8.1Z" fill="#fff"/><path d="M130.2 167.599s-.7-2.9 1-4.5 4.7-1.5 6.2-1.7c1.5-.2 3.6 1.4 4.9 2.7 1.3 1.3 3.1 3.3 3.5 4.9a35.952 35.952 0 0 0 4.1 7.7c1.2 1.5 6.9 1.8 8.9 2.3 4 1 5 5.4 5.1 10 .1 4.6-1.7 11.9-7.1 13.9-5.4 2-9.7-.9-11.9-8.2-2.2-7.3-2.9-7.3-2.9-7.3s-2.2-2.8-4-3.6c-1.8-.8-5.5-3.3-6.3-4.5-.8-1.2-.8-2 .3-2.3-1.6-.9-3.5-3.1-1.3-4.5-2.2-1.1-3-3.6-.5-4.9ZM49.7 163.9a3.804 3.804 0 0 0 3.1-2.6c.4-1.2-.2-2.4-2.4-2.5-2.2-.1-6.6-.2-7.8.3-1.2.5-2.1 2.4-1.1 4.5s2.9 1.8 4.4 1.3l3.8-1Z" fill="#EDA991"/><path d="M48.5 158.701s-1 1-.5 1.8 1.1 1.1 2.4.9c1.3-.2 2.3-1.1 2.2-1.8-.1-.7-2.4-.9-4.1-.9Z" fill="#FFCBBB"/><path d="M163.9 185.199c.3 3 .4 10-2.3 14.7-2.7 4.7-6.8 5.7-11 3.8-4.2-1.9-6.9-8.8-8-13.3-1.1-4.5-2.9-4.7-5.9-6.7-3-2-5.7-3.2-5.6-5.6a.802.802 0 0 1 .4-.9c-.1.1-1.2 2.4 3.7 3.7 4.9 1.3 6.2 3.6 7.6 3.9 6.9 1.4 1.5-17.2 2.4-16 .9 1.2 4.7 8.3 7.7 8.5 3 .2 10.2.5 11 7.9Z" fill="#D38879"/><path d="M129.8 173.4a1.799 1.799 0 0 0 .4 2.2 4.402 4.402 0 0 0 3 1.8l9.9 2.2s-9.1-2.3-11.4-3.6c-2.3-1.3-1.9-1.3-1.9-2.6ZM128.7 170a2.801 2.801 0 0 0 2.4 2.7c2.6.6 9.7.6 10.4.7.7.1-.3-.3-.3-.3s-8-.2-10-1.3a6.405 6.405 0 0 1-2.5-1.8ZM130.1 165.601s-.3 1.6.1 2c.4.4 6.9.1 7.3-.1a29.33 29.33 0 0 1 4.3 1.3c.6.2-1.6-1.5-3.8-2-2.2-.5-7.7 1.5-7.9-1.2ZM52.8 161.3c0-.2-1.3 1.4-3.3 1.8-2 .4-4.4-1.3-7 0-2.6 1.3-.8 1-.8 1s2.5 2.4 5.2 1.6c2.7-.8 5.4-2.5 5.9-4.4Z" fill="#D38879"/><path d="M51.2 168.601a2.194 2.194 0 0 0 2.095-1.265 2.2 2.2 0 0 0 .205-.835c.2-1.5 0-2.6-2.8-2.9-2.8-.3-4.7-.9-6.6-.3-1.9.6-3.7 1-3.7 2.8 0 1.8 1.4 4.4 2.3 4.7.9.3 6.6-2 8.5-2.2Z" fill="#EDA991"/><path d="M49.7 163.901a4.799 4.799 0 0 0-.1 1.8c.3.4 1.9.6 3.3.2 1.4-.4.3-2.3-3.2-2Z" fill="#FFCBBB"/><path d="M53.4 167a3.303 3.303 0 0 1-2.2.8l-6.5-.4c-1.4-.1-3.4 1-3.4 1.8s1.9 1.6 4.2.9c2.3-.7 4.5-1.3 5.5-1.4 1-.1 2.2-.3 2.4-1.7Z" fill="#D38879"/><path d="M49.3 173.501c1.2.1 3.9-.2 4.2-2 .3-1.8.3-2.4-3.5-2.6-3.8-.2-5.2-.8-7-.4-1.8.4-2.8 1.3-2.9 3.1-.1 1.8 1.3 3.5 2.8 4.5 1.5 1 1.5.4 3.2-.4a11.476 11.476 0 0 0 3.2-2.2Z" fill="#EDA991"/><path d="M49.8 169.101a7.095 7.095 0 0 0 0 1.5c.2.5 2.4.3 3.1 0 .7-.3.9-1 0-1.3-.9-.3-2.6-.1-3.1-.2Z" fill="#FFCBBB"/><path d="M53.5 171.701a5.207 5.207 0 0 1-3.4 1.1c-1.9 0-3.9-.4-5.2-.1a4.594 4.594 0 0 0-2.9 2.7c.9.7 1.1.9 1.9 1 .8.1 3-2.1 3.9-2.4.9-.3 3.2-.4 4-.7a2.706 2.706 0 0 0 1.7-1.6Z" fill="#D38879"/><path d="M47 177.801c1.06.165 2.14.165 3.2 0 1.3-.4 2.6-1.8 2.3-3.1-.3-1.3-3.6-1.5-5.6-1.4-2 .1-3.5 1.2-4.7 3.4-1.2 2.2.1 3.2.8 4.2.7 1 3.3 2.4 3.3 2.4l.7-5.5Z" fill="#EDA991"/><path d="M49.3 173.5s-1.3 1.1-.5 1.6a3.907 3.907 0 0 0 3.3.4c.7-.4 0-1.7-2.8-2Z" fill="#FFCBBB"/><path d="M52.4 175.9a5.307 5.307 0 0 1-3.1 1.4c-1.8 0-2.5-.9-3.2 0a7.494 7.494 0 0 0-1.5 2.4 5.802 5.802 0 0 0 .5 2.9 5.21 5.21 0 0 0 1.5.9l.3-5.4h1.8c1.1-.1 3-.4 3.7-2.2Z" fill="#D38879"/><path d="M700.3-181.699H184V473.99h516.3v-655.689Z" fill="#F3F3FF" stroke="#E0E0E0" stroke-miterlimit="10"/><g opacity=".6" fill="#7451EB"><path opacity=".5" d="M199.8 10c-3.1 1-6.2 2.1-9.5 1.3.3.1 1.2-2.9 1.5-2.8 3.3.7 6.4-.3 9.5-1.3a6.443 6.443 0 0 0-.8 1.4c-.1.2-.5 1.4-.7 1.4ZM258.8 56.8a20.499 20.499 0 0 0-7.3 1c.326-.466.594-.97.8-1.5a6.11 6.11 0 0 1 .7-1.4 20.6 20.6 0 0 1 7.4-.9c-.1 0-.7 1.3-.8 1.4-.1.1-.6 1.4-.8 1.4ZM231.9 20.9c-2.6-.9-5-2.1-6.2-4.7-.1-.2.6-1.3.7-1.5.1-.2.9-1.2.8-1.4 1.2 2.6 3.6 3.9 6.2 4.8-.1 0-1.4 2.9-1.5 2.8ZM307 37.6a23.9 23.9 0 0 0-6.7 7.1 32.62 32.62 0 0 0-3.3 9.2c-.1.2-3.2-.3-3.2 0a35.54 35.54 0 0 1 3.1-9 23.698 23.698 0 0 1 6.8-7.3c.3-.2 1.3 0 1.6 0 .3 0 1.4.2 1.7 0ZM266.2 125.302a12.005 12.005 0 0 1-7.5-2.6c.2.2 1.3 0 1.6 0 .3 0 1.4-.2 1.6 0a11.602 11.602 0 0 0 7.1 2.5c.6.1-.5.1-.6.1h-2.2ZM218.4 158.501a13.391 13.391 0 0 0 9 1.4c-.2 0-.7 1.3-.8 1.4-.1.1-.5 1.4-.7 1.4a13.298 13.298 0 0 1-9-1.4l1.5-2.8ZM228 149.8c-2.4-3.1-3.9-6.8-7.9-8.1.2 0 1.4-2.9 1.6-2.9 3.9 1.3 5.4 5 7.8 8.1.1.1-.7 1.3-.8 1.4-.1.1-.8 1.4-.7 1.5ZM200.7 61.902a24.507 24.507 0 0 0 6.2 4.8s-1.5 2.8-1.6 2.8a28.617 28.617 0 0 1-6.2-4.8c-.2-.2 1.8-2.6 1.6-2.8ZM211.6 106.9c.5-3-1-5.4-2.7-7.8-.1-.1.7-1.3.7-1.4 0-.1.9-1.3.8-1.4 1.7 2.3 3.2 4.8 2.7 7.8-.2 1-1.4 1.8-1.5 2.8ZM220.3 48.3a6.7 6.7 0 0 1-7.8-2.7c-.1-.1.7-1.3.7-1.4l.8-1.4a6.702 6.702 0 0 0 7.8 2.7c-.3.1-.7 1.2-.8 1.4a6.07 6.07 0 0 1-.7 1.4ZM280.4 187.102a34.712 34.712 0 0 0-4-12.4c-.1-.1.6-1.2.7-1.4.1-.2.9-1.3.8-1.4a32.29 32.29 0 0 1 4 12.4c.1.3-.6 1.2-.7 1.4-.1.2-.8 1.1-.8 1.4ZM319.8 227.001a18.998 18.998 0 0 1-12-3.1c-.1 0 1.6-2.8 1.5-2.8a18.398 18.398 0 0 0 12 3c-.272.481-.506.983-.7 1.5-.1.1-.6 1.4-.8 1.4ZM284.1 232.9c-2.6-3.8-7.8-2.1-11.5-1.3.2 0 .7-1.2.8-1.4.1-.2.5-1.4.7-1.4 3.7-.8 8.9-2.5 11.5 1.3.1.1-.7 1.3-.7 1.4 0 .1-.9 1.3-.8 1.4ZM331.7 203.201a12.393 12.393 0 0 0 3.4-2.2l1.4-1.4.5-.8a8.176 8.176 0 0 1-.7 1.3c.192-.233.329-.506.4-.8.4-1 1.1-1.8 1.5-2.8-1.5 4-4 7.8-8.1 9.5.3-.1.7-1.2.8-1.4.1-.2.5-1.3.8-1.4ZM201.8 138.2c-1.6-4.3-2.6-9.1-6.9-11.5.44-.997.941-1.965 1.5-2.9 4.3 2.5 5.4 7.2 7 11.6a9.984 9.984 0 0 1-.8 1.4 6.372 6.372 0 0 0-.8 1.4ZM369.4 149.201c-4.1-1.6-8.5-2.5-12.8-1.5.2 0 .6-1.3.7-1.4.1-.1.6-1.4.8-1.4a20.897 20.897 0 0 1 12.8 1.5c-.1 0-1.4 2.9-1.5 2.8ZM362.1 121.001a16.2 16.2 0 0 1-4.1-10.5c0-.4.6-1.1.8-1.4.2-.3.7-1 .7-1.4a16.301 16.301 0 0 0 4.2 10.5c-.229.487-.496.955-.8 1.4 0 .1-.8 1.3-.8 1.4ZM350.1 86.3c-3.4-.4-7.1-1-10.2.9.3-.2.6-1.2.7-1.5.1-.3.5-1.2.8-1.4 3.1-1.8 6.8-1.3 10.2-.8-.3-.1-1.1 2.9-1.5 2.8ZM309.9 14.301a13.802 13.802 0 0 0-8.1 2.4c.1 0 .2-.5.3-.5l.7-1.4a6.908 6.908 0 0 1 1-1.9 13.802 13.802 0 0 1 8.1-2.4 16.58 16.58 0 0 0-1 1.9c-.1.2-.8 1.9-1 1.9ZM333.9 61.201a14.401 14.401 0 0 1-7.3-7.3c-.1-.2.9-1.7 1-1.9.1-.2 1.1-1.7 1-1.9a14.401 14.401 0 0 0 7.3 7.3c-.1 0-1.8 3.9-2 3.8ZM323.3 73.3c-.3 2.6-1.5 4.7-2.7 6.9a12.298 12.298 0 0 1-4.4 5.4c.1 0 .3-.5.3-.5s.5-.9.7-1.4a6.908 6.908 0 0 1 1-1.9 9.99 9.99 0 0 0 3-2.8c1.1-1.5-1.7 3.6-.7 1.4l.3-1a8.483 8.483 0 0 0 .4-2.3c.294-.653.628-1.288 1-1.9l.8-1.3c0-.1.3-.4.3-.6ZM361.5 255.602c-4.6-4.5-12.8-2.7-17.7.2.1 0 .3-.5.3-.5l.7-1.4a6.899 6.899 0 0 1 1-1.9c5-2.9 13.1-4.7 17.7-.2a8.666 8.666 0 0 1-1 1.9 17.455 17.455 0 0 0-1 1.9ZM328.2 109.001a5.604 5.604 0 0 1-3.2 4.1 16.406 16.406 0 0 1-.9-1.9 6.01 6.01 0 0 0 3.2-4.1c-.1.1.4.7.4.9.206.312.374.648.5 1ZM315.6 108.401a7.498 7.498 0 0 0-2.1 3c.1-.2-.6-.7-.5-.9a8.105 8.105 0 0 1 2.1-3s.6.9.5.9ZM313.8 118.601c-1.2 2.1-3.1 3.4-3.2 5.9 0-.3-.5-.6-.4-1 0-2.4 2-3.8 3.1-5.8-.1.2.6.8.5.9ZM316.8 132.502c-2.5.2-4.2-1.1-5.6-3.1-.3-.3-.3-.7-.5-1 1.4 2 3.1 3.3 5.7 3.1.1 0 .3 1 .4 1ZM313 151.802c0 1.9.4 4-.8 5.7.1-.2-.6-.9-.5-1 .1-.1.8-3.7.8-5.6 0 .3.5.6.5.9ZM303.5 172.302c-1.7-.9-3.3-1.9-5.2-1.1-.1 0-.5-1-.5-1 1.9-.8 3.5.2 5.2 1.1 1.7.9.2.8.5 1ZM314.5 269.6c1.8.4 3.7 1 5.3-.3 0-.1.7.8.7.8-1.6 1.3-3.5.7-5.3.3-.3 0-.5-.7-.7-.8ZM299.3 167.802c-2.6-1.5-5.9-5.7-9.3-4l-1.4-2.9c3.4-1.7 6.7 2.5 9.3 4 .3.2.6 1.2.7 1.5.1.3.5 1.3.7 1.4ZM282.8 117.902a16.903 16.903 0 0 1-4.3 5.7c.1-.1-.5-.9-.4-1a16.9 16.9 0 0 0 4.2-5.7c-.1.2.6.8.5 1ZM276 78.902a6.801 6.801 0 0 1-2.9 2.1 7.805 7.805 0 0 0-.4-.9 6.601 6.601 0 0 0 2.8-2.2c-.1.1.6.9.5 1ZM259.3 73.6c-.277.651-.511 1.32-.7 2a3.704 3.704 0 0 0 0 1.8c.2.3.5 1 .1.3a7.042 7.042 0 0 1-.6-1.9 5.507 5.507 0 0 1 .8-3.1c-.1.1.5.7.4.9ZM295.4 75.201a5.201 5.201 0 0 1-4-.6c-.2-.2-.2-.8-.4-1a5.5 5.5 0 0 0 4 .7c.1 0 .4 1 .4.9ZM288.9 97.001a10.907 10.907 0 0 1-2.5 3.8c0-.1-.6-.9-.5-1a11.509 11.509 0 0 0 2.5-3.7c-.1.1.6.7.5.9ZM244.3 29.101a6.7 6.7 0 0 1-4.8.3c-.2-.1-.2-.9-.5-1a6.6 6.6 0 0 0 4.8-.3c.1 0 .5 1 .5 1ZM253.5 22.302l-.9 1.7-.2-.4-.3-.5.9-1.7.3.4.2.5ZM199.2 196.8l-.9 1.7a2.571 2.571 0 0 0-.2-.5 1.312 1.312 0 0 1-.3-.5l.9-1.7c.122.153.223.321.3.5.084.159.151.327.2.5ZM252.2 216.401l-1.7-.7.4-.3.5-.3 1.8.8c-.1-.1-.5.2-.5.2l-.5.3ZM344.6 167.2a8.198 8.198 0 0 0-5.8 2.3c-.2.1-1.7-1.4-1.6-1.5a8.092 8.092 0 0 1 5.8-2.2c.3 0 .7.5.9.6.208.288.442.556.7.8ZM341.6 205.402l-2.3.2c-.6.1-1-.9-.3-.9l2.3-.3c.6 0 1 .9.3 1ZM336.1 219.302c-1.1-1.9-2.1-4.1-1.8-6.3.1-.4 1-.7 1-.4-.3 2.2.7 4.4 1.7 6.2 1 1.8-.8.8-.9.5ZM290.6 143.801c-2 .5-3.9.7-5.7-.5-1.8-1.2.4 0 .6.1.2.1 3 .2 4.2-.1 1.2-.3.9.5.9.5ZM280.8 21.602c.2.1.1.1-.1.1h-.5l-1.2-.3-1.2-1.5s.6-.5.9-.3c.3.2-.1-.1.1-.1h.5l1.2.3 1.3 1.5s-.7.5-1 .3ZM189.4 105.901a6.903 6.903 0 0 1-1.9-3.3s1-.1 1.1.1a5.906 5.906 0 0 0 1.9 3.2c.1.1-.4.1-.4.1l-.7-.1ZM245.6 191.101a6.8 6.8 0 0 0 .2-4c0-.2.4.1.4.1a.697.697 0 0 1 .4.5 6.402 6.402 0 0 1-.2 4.1c-.1.2-.9-.4-.8-.7ZM240.3 119.702a3.7 3.7 0 0 0-.7 3.2c.2.7-.7.9-.9.2a4.6 4.6 0 0 1 .9-4.2c.3-.5 1 .3.7.8ZM260.5 147.901c-1.7 1.1-2.8 3.8-.5 5 0 0-.7.4-1 .3-2.4-1.1-1.2-4 .6-5.1.2-.2.4-.2.7-.3.3-.1.4-.1.2.1ZM210.3 198.3a44.888 44.888 0 0 1-7.7 3.6 1.998 1.998 0 0 1-1.5-.3c-.3-.4-.3-.9.2-1a35.283 35.283 0 0 0 7.4-3.4 1.396 1.396 0 0 1 1.5.1.596.596 0 0 1 .277.765.586.586 0 0 1-.177.235ZM363.2 70c-2.7 0-5.2.6-7-1.8-.6-.9-.8-2.1-1.4-2.9 1.9 2.4 4.3 1.8 7 1.8.2 0 .7 1.3.8 1.4.139.523.341 1.026.6 1.5Z"/></g><path d="m296.9 234.299 9.3 87.3s-45.5 4.2-45.5 3.2-5.9-34-5.9-34l-1.2 34.2-45.8-3.5s5.9-88.4 8.1-91.9c2.2-3.5 77.6 2.9 81 4.7Z" fill="#003668"/><path d="M242.6 100.9a52.35 52.35 0 0 1-12.4 7.5c-6.9 2.9-26.3 12.1-28.9 15.7-2.6 3.6-9.3 24.8-11.9 41.9-2.6 17.1-5.4 47.3 3.9 48.7 9.3 1.4 20.5-10.6 22.1-18.1-.5 8.7.2 20.2-1.3 28.7-1.1 6.4-1.8 11.3 5.1 13.1 6.9 1.8 25.8-.8 37 1.3s18.5-1.4 26.4-1c7.9.4 14.9-.7 16.6-5.5 1.7-4.8-1.1-10.3-2-15.1-.9-4.8 3.8-20.8 4.8-27.2 1-6.4 9-21.7 9.4-39.9.4-18.2 2-26.2-3.9-30.4-5.9-4.2-12.9-6.1-18.4-9.6-5.5-3.5-11.9-6.9-16.1-9.2-4.2-2.3-21.9-4.8-30.4-.9Z" fill="#E1E1FF"/><path d="M295.1 185.999s-12.1 11.7-25.8 17.7c0 0 18.4-3.3 23.4-6.8-4.6 4.1-1.9 12.1-5.6 21-2.2 5.1-9.1 10.7-19.8 11.6a60.404 60.404 0 0 0 16.9-1.9c6.4-1.6 5 4.4-1.5 7.9s-19.2 4.9-19.2 4.9 15.2-1.3 18.7-1.2c3.5.1 15.9.4 17.3-6.7 1.4-7.1-2.5-12.3-2.4-16 .1-3.7 4.2-18.8 4.2-18.8s4.9-21 4.9-25.7c0-4.7-11.1 14-11.1 14ZM256.3 122.9s2.5 44.7.6 58.8c-1.9 14.1-1.3 29.7-1.5 33.6-.2 3.9.8 24.4.8 24.4l3.7.7s-.1-17.5-.6-24.8c-.5-7.3-.9-30.7.9-37 1.8-6.3-1.5-55.7-1.5-55.7a9.543 9.543 0 0 1-2.4 0ZM203.8 182.199a33.194 33.194 0 0 0 10.5-20.7c1.2-12.9 1.3-15 1.3-15s-1.6 34.6-2.2 37.5c-.6 2.9-9.7-.6-9.6-1.8Z" fill="#BEBAF7"/><path d="M214.3 174.499c-4.1 2.3-16 9.5-20 13.4-8.1 7.8-7.3 16.1-5.3 22.4 2 6.3 12.5 8.7 19 3 6.5-5.7 10.4-15.9 11.7-20.4 1.3-4.5-5.4-18.4-5.4-18.4Z" fill="#E1E1FF"/><path d="M223.6 172.2c-.6-1.4-1.9-2.7-3.4-2.6-1.5.1-5.9 3.2-6.7 5.3-.8 2.1-1.2 9.8 2.2 14.7 3.4 4.9 3.3 5.3 5.2 4.6 1.9-.7 5.4-3.5 5.8-6.5.4-3-1.4-12-3.1-15.5Z" fill="#BEBAF7"/><path d="M242.7 157.9v-7.7a10.614 10.614 0 0 0-2.2 3.2c-.4 1.5-2.2 1.7-2.4 3.3-.2 1.6 4 2 4.6 1.2Z" fill="#D38879"/><path d="M317.9 176.5c-7.5 1.9-17 8.9-19.7 15.3-2.7 6.4-2.4 16.9 4.9 20.1 7.3 3.2 12.7-2 16.4-6.8 3.7-4.8 12.6-19.1 14.9-21.5 2.3-2.4-8.4-9.2-16.5-7.1Z" fill="#E1E1FF"/><path d="M330.1 184.001s.1 1.6 2.6.7c2.5-.9 4.2-3.6 4.8-5.4.6-1.8-3.9-4.6-7.4-6.4-3.5-1.8-6.3-3.3-11.4 2.6-.9 1.9 9.2 6.8 11.4 8.5Z" fill="#F3F3FF"/><path d="M330.9 145.9v11.2s4.4.8 4.8.3c.4-.5-.3-3.1-.4-4.2-.1-1.1.3-3.3-.9-5.6s-3-2.4-3.5-1.7Z" fill="#D38879"/><path d="M249.4 130.101s2.7-9.3 4.6-11.2c1.9-1.9 5.1-2.2 7 1.3 1.9 3.5 5.8 9.5 5.8 9.5s4.5-.6 7-7.6 3.6-10.7 3.4-14.4c-.2-3.7-.3-4.7-1.4-5.6a18.996 18.996 0 0 0-6.2-4.5c-3-1.1-16.8-2.8-21.9-1.3-5.1 1.5-7.1 4.2-8.3 5.2-1.2 1-1.9 1.8-2.1 3.2-.2 1.4-.3 8 2.6 14.4s6.8 11.4 9.5 11Z" fill="#BEBAF7"/><path d="M257.9 122.9c.317.064.647.007.924-.16.278-.166.483-.43.576-.74.358-.913.659-1.848.9-2.8a12.692 12.692 0 0 0 5.9-3 23.698 23.698 0 0 0 5.9-10.5c.3-1.9-.6-8.7-.1-12.7s-1-10.4-9.2-10.9-17.7-.2-19.1 2c-1.4 2.2-1.3 9.9-1.5 13.6-.2 3.7-1.5 7 .4 11.3 1.9 4.3 4.6 9.6 11.4 9.9 1 3.1 1.6 3.8 2.3 4a3.991 3.991 0 0 0 1.6 0Z" fill="#EDA991"/><path d="M237.5 52.8c-.3.5-1.9 10.7-1.3 14.8.6 4.1.4 2.7-.2 2.5-.6-.2-3 .1-2.8 2.4.2 2.3 1.1 1.8 1 4.8-.1 3 .5 7.6 3.6 7.1.7-.1 1-1.7 1-1.7s1.4 9.1 3.5 11.9c2.1 2.8 7.1 10.001 13.5 9.401 6.4-.6 11.9-3.1 14.4-7.1 2.5-4 2.6-7.2 3.2-10.9.6-3.7.9.3 3-1.8s1.4-5.3 1.5-8c.1-2.7.8-5.7 0-6.3a1.6 1.6 0 0 0-2.4.6c.4-2.7 2.4-12.6-.5-17.7s-2.9-7.6-12-8.1-13.9-.7-16.9 1c-3 1.7-6.9 3.4-8.6 7.1Z" fill="#EDA991"/><path d="m274.8 71.3-1.9-5.3c-1.2-3.6-1.8-10.2.1-12-.9-.8-1.2-4-1.2-4s-.5 2.2-2.1 1.7c-1.6-.5-4.9-1-10.7-.3-5.8.7-2.3 1.3-4.2 3a10.895 10.895 0 0 1-4.6 2.7c1.1-.9.1-2.5.1-2.5l-4.6 2.7-2.5 1.5s-1.5.3-.9 0-.8-.9-2.1-.6l-2.8.3a23.85 23.85 0 0 1 .4 5.4c-.2 2.3.2 4.6.2 6.5 0 1.9-.2 9-.2 9s-.9-3.2-1.6-6.4c-.7-3.2-2.3-2.4-2.3-2.4s.3-5.5-.7-7.6c-1-2.1-.5-7.8 2.3-10.5.1-1.1.1-3.6 5.1-7.3 3.1-5.4 10.6-5.9 10.6-5.9s2.3-.9 8.6-1a8.4 8.4 0 0 1 8.2 5s5.5-.4 7.6 3.7a19.994 19.994 0 0 1 2.1 11.3c-.5 3.5.7 8.5.1 10.9 0 0-2.9-6.5-3 2.1Z" fill="#BEBAF7"/><path d="M243.3 97.6s3.2 9.6 10 13c8.6 4.3 15.7.9 17.5-1 1.8-1.9 1.7-3.1 1.7-4.6l-.7-10.1-28.5 2.7Z" fill="#D38879"/><path d="M238.4 78.101s1.6 6.8 1.8 7.9c.2 1.1.4 1.1.8 2.5s1.1 1.4 1.5 2.7c.4 1.3 1.1 1.3 1.5 1.6.4.3 1.4-.8 1.7-.5.3.3.6-1.4.9-1.3.3.1-.6-2.9-.4-2.5.2.4.7-1.6 1.2-1.4.5.2 1.5-.3 2-.2.5.1 1.8-.7 1.8-.5 0 .2 1.4-.4 1.6-.1.2.3 1.6 0 1.6 0a.6.6 0 0 1 .8-.1c.923.224 1.858.39 2.8.5.6.1 1.4-.5 1.8-.3.4.2-.1-.2.9.1 1 .3 1.7-.1 2.2.1.5.2.6-.3.9 0 .397.25.839.42 1.3.5a3.5 3.5 0 0 1 1.5.3l.8.6c.438.403.751.924.9 1.5.3.9 1.3 1.9 1.5 2.6.2.7 1-1.1 1.2-.4.2.7.5-1.4 1-1.1.5.3 2.1-9.5 2.2-9.2.1.3.5-1.5.5-1.3 0 .2.3-.3.3-.1 0 .2-.8 4.3-1 6.4-.2 2.1-.5 1.8-.7 3.2-.2 1.4-.5 1.2-.6 2.6a7.16 7.16 0 0 1-.5 2s.2 0-.3 1.5 0 .4-.6 1.7a8.749 8.749 0 0 0-.7 1.9s-.3-.7-1.1 1.3a7.088 7.088 0 0 1-1.5 2.5 1.997 1.997 0 0 0-1.9.9c-.9 1.2-.8-.2-2.1 1s-1 1.1-1.8 1.8-1.1-.4-1.8.5-1.4-.6-2.2.1c-.8.7-.6.4-1.5.5-.9.1-1.3-1-1.4-.4-.1.6-1.2-.1-1.2-.1s-2.4-.8-2.5-.4c-.1.4-3-2.8-2.8-1.9.2.9-2-2.5-2.1-2.1-.1.4-1.2-2.1-1.3-1.6-.1.5-1.8-2.4-1.8-2.2 0 .2-.6-1.8-.8-1.3-.2.5-2.2-2.4-2.3-2.2-.1.2-.2-3.6-.5-3.1s-1-2.1-1-1.6a41.173 41.173 0 0 1-.6-4.9c.2.4 0-4.2 0-4.2v-3.8Z" fill="#BEBAF7"/><path d="M245.5 90.2c0 .1-.7-2.7 2.7-5-2.3.2-4.5 2.6-2.7 5ZM266.1 85.4c-.3-.1 2.3 1.9 2.7 4.2.5-1.3.1-3.5-2.7-4.2ZM252.2 82.201a2.099 2.099 0 0 0 2.1 1.9 4.401 4.401 0 0 0 4.5 1.5c2.2-.4 2.7-1.6 2.7-1.6s1.7.2 2-.8a1.696 1.696 0 0 0-.5-1.6s1.5.7 1.2 1.9a1.993 1.993 0 0 1-1.7 1.4s-.7 2.6-4.3 2.6c-3.6 0-4.3-2.8-4.3-2.8s-1.9-.1-1.7-2.5ZM254.8 71.5s1.2 5.7-1 8.5c1-.4 3.4-4.2 1-8.5Z" fill="#C97D6B"/><path d="M248.2 88.4s1.8.6 8.3.8c6.5.2 7.9.2 8.9-.3.642-.354 1.31-.655 2-.9a15.305 15.305 0 0 1-4.6 2.9c-3.3 1.6-5 1.8-8 1.3s-5.2-3-6.6-3.8Z" fill="#003668"/><path d="M251.4 89.6c3.645.492 7.329.626 11 .4a8.698 8.698 0 0 1-5.5 1.4 10.705 10.705 0 0 1-5.5-1.8Z" fill="#fff"/><path d="M253.5 94.2a13.5 13.5 0 0 0 7.4-.3c-1.2 1.4-5.6 2.4-7.4.3Z" fill="#A2A6E2"/><path d="M245.7 74.5s1.9-2 4.1-1.7a18.18 18.18 0 0 1 3.4.8c.4.2.1-.9-1.3-1.3-1.4-.4-2.8-1-4.2-.1-1.4.9-2.8 2.2-2 2.3Z" fill="#003668"/><path d="M246.5 75.3s3.4.501 4.9-.699c-.3 1-2.8 2.4-4.9.7ZM242 76.7a10.737 10.737 0 0 1 2.5-1.8c.4-.3.3-.9-.4-1.2l-2.4-.7c.762.345 1.497.746 2.2 1.2a6 6 0 0 0-4 1.7 7.803 7.803 0 0 1 4-1.3c-.8.3-1.9 2.1-1.9 2.1Z" fill="#C97D6B"/><path d="M245.5 70.8c.5-.1.7-.8 2.5-.5 1.586.082 3.16.316 4.7.7 1.1.3 1.6-.5 1-1-.6-.5-1.7-1.6-2.8-1.6-1.258-.2-2.541-.2-3.8 0a3.107 3.107 0 0 0-2.1 1.2c-.2.5-.2 1.2.5 1.2ZM261.6 73.4c1-.3 3.3-2.299 6.8-.199.4.2 1.3-.1 0-.9s-1.7-1.4-4-.8c-2.3.6-3.7 2.1-2.8 1.9Z" fill="#003668"/><path d="M262.9 74.3s3 .7 4.9-.1a3.295 3.295 0 0 1-3.774.883 3.306 3.306 0 0 1-1.126-.782ZM269.4 72.9a4.802 4.802 0 0 1 3.5-1 9.613 9.613 0 0 0-2.4 1s.9-.1 2 1.5a11.7 11.7 0 0 0-2.5-1.3c.2.1.1.7 1.2 1.5a3.4 3.4 0 0 1-1.8-1.7Z" fill="#C97D6B"/><path d="M299.5 209.299s6 5.2 14.4-2.8 18-23.5 18-23.5h2.8l-9.5 13.8c-3.3 4.9-8.2 15.3-16.7 16.2a10 10 0 0 1-9-3.7Z" fill="#BEBAF7"/><path d="M261.8 70.6c.7.5 2-.7 4-.7s2.3.3 3.8.2c1.5-.1 1.1-.6.7-.9a3.898 3.898 0 0 0-2.5-1.4 8.301 8.301 0 0 0-4.5.8c-1.3.9-2.1 1.6-1.5 2Z" fill="#003668"/><path d="M331.5 124.3a1.005 1.005 0 0 0-.4-.8l-.6-.2-87.7 1.7-.6.2a1.205 1.205 0 0 0-.4.8l1.2 61.2c0 .3.2.5.5.7l.5.2 87.8-1.7.5-.2a.902.902 0 0 0 .4-.8l-1.2-61.1Z" fill="#02C1B7"/><path d="m305.7 155.7 25.2-32.1-.6-.2-87.7 1.8-.6.2 26.7 30.5-25.5 32.2a.706.706 0 0 0 .6.1l87.8-1.7.5-.2-26.4-30.6Z" fill="#00E2DC"/><path d="m327.232 128.491-81.785 1.571 1.034 53.88 81.785-1.57-1.034-53.881Z" fill="#7451EB"/><path d="m248.9 131.499.5.9.9.1-.7.6.2.9-.8-.4-.8.5.1-.9-.7-.7.9-.1.4-.9Z" fill="#fff"/><path d="m247.8 136.7.4 19.9.4 20a5.09 5.09 0 0 1 3.636 1.422 5.108 5.108 0 0 1 1.564 3.578l33.8-.7 33.7-.7a5.408 5.408 0 0 1 1.8-4l-71.5-41.3a5.702 5.702 0 0 1-3.8 1.8Z" fill="#F3F3FF"/><path d="m320.3 130.101-33.7.7-33.8.7a5.2 5.2 0 0 1-1.2 3.4l71.5 41.3a5.997 5.997 0 0 1 3.2-1.2l-.4-19.9-.4-20a5.102 5.102 0 0 1-5.2-5ZM324.1 129.999l.4.9 1 .1-.7.6.2 1-.9-.5-.8.5.2-.9-.7-.7.9-.1.4-.9ZM249.9 178.9l.4.8.9.1-.6.7.1.9-.8-.4-.8.4.1-.9-.6-.6.9-.2.4-.8ZM325 177.4l.5.8.9.1-.7.7.2.9-.8-.4-.8.4.1-.9-.7-.6.9-.2.4-.8Z" fill="#fff"/><path d="m278 157.8-5.1 14.8 5.6-1.1 3.6 4.3 5.1-14.8-4.6-1.6-4.6-1.6ZM296.2 157.499l5.7 14.6-5.6-1-3.5 4.5-5.6-14.6 4.5-1.8 4.5-1.7Z" fill="#00E2DC"/><path d="m286.7 138.199.8-.7.7.7.8-.6.6.8.9-.5.6.9.9-.4.5.9.9-.3.4.9 1-.2.2 1 1.1-.1.1 1h1l.1 1 1 .1-.1 1.1 1 .2-.2 1 1 .3-.3 1 1 .4-.4.9.9.5-.5 1 .8.6-.6.8.8.7-.6.8.7.7-.8.7.6.9-.8.6.5.9-.8.5.4 1-.9.4.3 1-1 .3.2 1.1-1 .2.2 1-1.1.2v1h-1l-.1 1h-1l-.2 1-1-.2-.3 1-1-.3-.4.9-1-.4-.5.9-.9-.4-.6.8-.9-.6-.6.8-.8-.7-.8.7-.7-.7-.8.6-.7-.8-.9.5-.5-.9-.9.4-.5-.9-1 .3-.3-.9-1 .2-.3-1-1 .1-.1-1h-1l-.1-1-1-.1.1-1.1-1-.2.1-1-.9-.3.3-1-1-.4.4-.9-.9-.5.5-1-.9-.5.6-.9-.7-.7.6-.8-.7-.7.8-.7-.6-.9.8-.6-.6-.9.9-.5-.4-1 .9-.4-.3-1 1-.3-.3-1 1-.3-.1-1 1-.2v-1h1.1l.1-1h1l.2-1 1 .2.3-1 1 .3.4-.9 1 .4.5-.9.9.5.6-.9.8.6.7-.8.8.7Z" fill="#7451EB"/><path d="m265.942 149.875-12.997.249.017.92 12.998-.249-.018-.92ZM266.098 152.773l-12.998.25.018.92 12.997-.25-.017-.92ZM262.6 155.339l-9.1.182.018.92 9.1-.182-.018-.92ZM265.207 158.488l-11.998.23.018.92 11.998-.23-.018-.92ZM263.204 161.026l-9.6.192.018.92 9.6-.192-.018-.92ZM316.814 149l-9.298.179.017.92 9.299-.179-.018-.92ZM320.467 151.728l-12.998.25.018.92 12.998-.25-.018-.92ZM319.623 154.646l-11.998.23.018.92 11.997-.23-.017-.92ZM314.879 157.635l-7.298.14.017.92 7.299-.141-.018-.919ZM318.232 160.37l-10.498.202.018.919 10.498-.201-.018-.92Z" fill="#BEBAF7"/><path d="M294.2 151.901a7.8 7.8 0 0 0-2.6-5.8 8.096 8.096 0 0 0-10.1-.8c-.3.2-.3.2-.1.5l2.3 2.7c.2.2.3.2.6.1a3.894 3.894 0 0 1 3.784.136 3.9 3.9 0 0 1-3.684 6.864c-.2-.1-.4-.1-.5.1l-2.3 2.8c-.2.2-.2.3.1.4a7.6 7.6 0 0 0 5.5 1.2 8.103 8.103 0 0 0 7-8.2Z" fill="#fff"/><path d="M222.3 170.901a15.001 15.001 0 0 0-1.2 8.3 15.41 15.41 0 0 0 3.5 7.2s2.3-3.3 2.8-4.3a6.708 6.708 0 0 0 6.3-.7l4.8-3.6s.3 1 2.3 1.5c2 .5 3.7 1.2 4.8.2a4.905 4.905 0 0 0 1.8-3.8c1.5 0 3.2-1.8 2.9-4.4 1.3-.7 2-4.3 1.7-6.1 2.4.6 4.6 1.5 7 1.3 2.4-.2 3.2-2 1.2-3.1s-5.1-1.7-6.7-2.7a23.663 23.663 0 0 0-7.9-3.1c-3.7-.9-6.5-1.7-7.9-1.5-1.4.2-2 .6-3.7 3.3-1.7 2.7-9.2 9.8-11.7 11.5Z" fill="#EDA991"/><path d="M258.9 162.8s-.9.5-1 1.1c-.1.6 1 1.2 2.2 1.4a.904.904 0 0 0 .878-.583.894.894 0 0 0-.278-1.017 13.259 13.259 0 0 0-1.8-.9Z" fill="#F4B9A6"/><path d="M332.9 156.299a9.217 9.217 0 0 0-4 1.9c-1.1 1-1.4 2.4-.3 2.9-1.5 1.3-1.7 4.1.5 5a3.01 3.01 0 0 0-.862 2.244 3 3 0 0 0 1.062 2.156c-1.4.1-2.6 3.2-.5 5.2a15.585 15.585 0 0 0 4.1 2.8v3.5a7.293 7.293 0 0 0 3.9-1.9 15.774 15.774 0 0 0 2.8-3.6c.6-.6 2.1-1.9 2.3-2.9.2-1 2.8-2.3 2.8-4.4 0-2.1.1-3-.3-3.8-.4-.8 1.2-2.9.3-4a36.84 36.84 0 0 0-3.5-3.4c-.9-.9-1.8-2.2-3.6-2.1a11.813 11.813 0 0 0-4.7.4Z" fill="#EDA991"/><path d="M328.4 160.901a1.405 1.405 0 0 0 1.1-1.2 6.49 6.49 0 0 0 0-2.1s-1.6.9-1.6 2.3.5 1 .5 1Z" fill="#F4B9A6"/><path d="M237.8 78.8s-1.1-10.2-.6-13c1-6.7-1.5-6.8-1.7-7.4-.1-1.331-.1-2.668 0-4 0 0 .6 2.8 5 2.5 4.4-.3 5.8-6.1 5.6-8.2a3.506 3.506 0 0 0 2.457 3.58 3.495 3.495 0 0 0 1.543.12c2.6-.3 3.5-3.6 9.4-4.6 5.9-1 8.6-2.5 8.5-4.5 1.4 0 2.2.4 2.4 4 .2 3.6 1.4 2.7 1.4 2.7s.5 2.7-3.2 1.7c-2-.1-9.5-.3-11.7 1.6-2.2 1.9-1.3 2.8-5.5 4.8s-4.9 1.9-4.9 1.9 2.7-3.1 2.9-4.3c-1.7 2.1-6.6 4.8-8.8 4.7.388-.568.723-1.17 1-1.8l-3.4.5a7.194 7.194 0 0 1 .6 4.4 41.767 41.767 0 0 0-.3 6.8c0 2-.7 8.5-.7 8.5ZM251.6 107s3.4-1.2 4.1-.5c.7.7.9-1 1.5-.5s1.7-1.3 2.7-.8c1 .5 2.2-2.4 3-2.2.8.2 1.3-2 2.4-1.8 1.1.2 2.2-3.7 2.5-3 .3.7-.3-3.7.4-3.3.7.4.6-2.5.9-1.7.3.8 1.9-1.5 1.9-1.5s.3-1.9.9-2.1c.6-.2 1.8-7.6 1.9-8 .1-.4 1.6-3.8 1.6-3.8a79.272 79.272 0 0 1-1 8.8c-.5 2.5-1.3 4.2-1.2 5.2a14.796 14.796 0 0 1-1 5.4c-.7 1.6-1.6 3.3-1.6 3.3s.7-1.7-.5.2-1.2 2.3-1.9 2.8c-.408.3-.895.473-1.4.5-.555.326-1.06.73-1.5 1.2-.8.8 0-.7-1.8.9s-1.5.6-2.9 1.5-1.8.3-2.2.6c-.4.3-.8.2-1.5.4s-1.2-.4-1.7-.3c-.5.1-1.6-.4-.8-.2l-2-.6c.5.2-.8-.5-.8-.5ZM273.5 54.3a2.605 2.605 0 0 1 .7-1.7 6.296 6.296 0 0 0 1.5-5.4 22.394 22.394 0 0 1 3.4 9.8c0 3.4-.2 4.5-.4 7.3s0 5.2-.5 6.5c-.5-.6-2.2-1.4-2.7.8a29.021 29.021 0 0 0-.6 4.5s-1.5-7.2-1.9-9.5c-.4-2.3-.9-9.2.5-12.3Z" fill="#A2A6E2"/><path d="M223 184.1c-.1-.1 4.1-3.2 4.1-3.2a12.89 12.89 0 0 0 6.9-2.6c4.2-3.5 4.4-2.4 5.5-2a12.387 12.387 0 0 0 5.1 1.7 2.304 2.304 0 0 0 1.961-.467 2.299 2.299 0 0 0 .839-1.833c-.9-.6-5.8-2.8-5.8-2.8s6.6 2.5 7.5 1.4c.9-1.1 1.7-2.8.9-3.4-.8-.6-6.8-3.2-6.8-3.2s4.5 1.9 7.1 1.5c2.6-.4 2.1-3.9 1-4.2-1.1-.3-5-1.6-6-2l-2.1-.8s7.5 1.6 9 2.1 4.5 1.6 6 1.7c1.5.1 2.9 0 3.1-.9.2-.9-1.2 2.1-3.7 1.7-2.5-.4-4.8-1.5-5.6-1.6a8.093 8.093 0 0 1-.1 4.1c-.5 1.5-.8 1.8-1.5 2a3.702 3.702 0 0 1-.7 3.3 2.497 2.497 0 0 1-2.1 1.1s.2 3.4-2.3 4.6c-2.5 1.2-7.1-.8-6.8-2.5a55.12 55.12 0 0 1-4.6 3.4 6.192 6.192 0 0 1-6.5.9c-.6 1.2-2.8 4.3-2.8 4.3a14.862 14.862 0 0 1-1.6-2.3ZM328.6 161.1a10.319 10.319 0 0 1 3.3-.7c1.8 0 4.5-.3 5.4.1a35.36 35.36 0 0 1 4.4 3.3s-3.9-2.6-6.5-2.6a51.184 51.184 0 0 0-6.6-.1ZM327.9 165.101c1.208.399 2.445.7 3.7.9 1.62.323 3.256.556 4.9.7.9 0 3 2.8 3 2.8s-2.3-2-3.5-2a62.83 62.83 0 0 1-6.9-1.4 2.301 2.301 0 0 1-1.2-1ZM328.6 169.8l2.3 1.2a11.286 11.286 0 0 1 3.5 2.1c.768.76 1.41 1.637 1.9 2.6l-3.8-2.9-3.2-2.3a1.896 1.896 0 0 1-.7-.7ZM330.1 176.8l3.4 2s2.2 1.2 1.7 2.4a7.993 7.993 0 0 1-2.6 1v-3.3l-2.5-2.1Z" fill="#D38879"/><path d="M189 210.301s6.5 5.9 13.1 1.2 16.6-20.9 16.6-20.9l.9 2.7s-6.4 23.2-19.1 23.2c-9.9 0-11.5-6.2-11.5-6.2Z" fill="#BEBAF7"/><path d="M234.5 72.9s1.5 4.5 1.4 5.2c-.1.7-.4 1.8.2 2.3.6.5.1.6.1.6s-.6.3-.8-1.6c-.2-1.9-.9-6.5-.9-6.5ZM277.2 72a23.988 23.988 0 0 0-.6 3.7c-.2 1.7.8 1.8.5 3.3l-.4 1.6a5.3 5.3 0 0 0 .4-3.9c.1-2.7.1-4.7.1-4.7Z" fill="#C97D6B"/><path d="M686.3 474 184 184l-502.3 290" fill="#F3F3FF"/><path d="M686.3 474 184 184l-502.3 290" stroke="#E0E0E0" stroke-miterlimit="10"/><g opacity=".6"><path opacity=".5" d="M122.1 248.7a12.397 12.397 0 0 1-7.8 1.3c.3 0 1.2-.7 1.4-.8.2-.1 1.1-.8 1.4-.8 2.519.509 5.137.12 7.4-1.1.6-.3-.4.3-.4.3l-2 1.1Z" fill="#7451EB"/></g><g opacity=".6"><path opacity=".5" d="M95.7 300.501a13.398 13.398 0 0 0 8.6-3c-.2.1 0 1.5 0 1.6.05.532.05 1.068 0 1.6a13.398 13.398 0 0 1-8.6 3v-3.2Z" fill="#7451EB"/></g><g opacity=".6"><path opacity=".5" d="M100 288.301c-3.5-1.6-6.6-4.2-10.7-3.4.1-.1-.2-3.2 0-3.2 4.1-.8 7.2 1.8 10.7 3.4.05.532.05 1.068 0 1.6a8.501 8.501 0 0 0 0 1.6Z" fill="#7451EB"/></g><g opacity=".6"><path opacity=".5" d="M163.9 296.5a33.508 33.508 0 0 0-9.4-9c-.2-.1-.1-1.5-.1-1.7a8.565 8.565 0 0 0 .1-1.6 35.009 35.009 0 0 1 9.4 9c.2.3 0 1.3 0 1.6 0 .3-.2 1.4 0 1.7Z" fill="#7451EB"/></g><g opacity=".6"><path opacity=".5" d="M213.2 305a18.2 18.2 0 0 1-12 3c-.1 0 .1-3.2 0-3.2a18.2 18.2 0 0 0 12-3 8.552 8.552 0 0 0 0 1.6c.05.532.05 1.068 0 1.6Z" fill="#7451EB"/></g><g opacity=".6"><path opacity=".5" d="M188.8 335c-4.1-2-7.9 1.9-10.8 4.3.2-.1 0-1.4 0-1.6a8.552 8.552 0 0 1 0-1.6c2.9-2.4 6.7-6.4 10.8-4.3a8.726 8.726 0 0 1 0 1.6 8.385 8.385 0 0 0 0 1.6Z" fill="#7451EB"/></g><g opacity=".6"><path opacity=".5" d="M216.6 286.4a10.696 10.696 0 0 0 2-3.6 5.89 5.89 0 0 0 .5-1.9c.1-.3.1-.6.2-1v1.6c0-.3-.1-.6-.1-.9 0-.3.1-2.2 0-3.2.5 4.2.2 8.8-2.6 12.2.2-.2 0-1.4 0-1.6 0-.2-.2-1.4 0-1.6Z" fill="#7451EB"/></g><g opacity=".6"><path opacity=".5" d="M282 270.801c-2.8 2.4-6.3 3.9-8.1 7.3.2-.3 0-1.2 0-1.6 0-.4-.2-1.2 0-1.6 1.8-3.4 5.3-4.9 8.1-7.3-.013.535.02 1.07.1 1.6 0 .2.1 1.5-.1 1.6Z" fill="#7451EB"/></g><g opacity=".6"><path opacity=".5" d="M295.1 265.601c-3.4-3.1-6.6-6.8-11.6-6.9v-3.2c5 .1 8.2 3.8 11.6 6.9.2.1 0 1.4 0 1.6a8.552 8.552 0 0 0 0 1.6Z" fill="#7451EB"/></g><g opacity=".6"><path opacity=".5" d="M241.5 235.6c-1.9 2.7-5.3 3.7-8.6 3.4-.1 0 .1-3.2 0-3.2 3.3.3 6.7-.7 8.6-3.5-.2.3 0 1.4 0 1.7 0 .3.2 1.3 0 1.6Z" fill="#7451EB"/></g><g opacity=".6"><path opacity=".5" d="M224.3 221a21.304 21.304 0 0 0-12 4.7c.2-.1 0-1.4 0-1.6a8.552 8.552 0 0 1 0-1.6 21.304 21.304 0 0 1 12-4.7c.1 1.064.1 2.136 0 3.2Z" fill="#7451EB"/></g><g opacity=".6"><path opacity=".5" d="M267.7 318.4c-6.2-1.7-12.5 3.7-15.5 8.6.1-.1 0-.6 0-.6v-1.5c-.1-.73-.1-1.47 0-2.2 3-4.9 9.3-10.3 15.5-8.6.05.733.05 1.468 0 2.2-.05.699-.05 1.401 0 2.1Z" fill="#7451EB"/></g><g opacity=".6"><path opacity=".5" d="M169 205a5.8 5.8 0 0 1-.8 5.1l-1.8-1.2a5.807 5.807 0 0 0 .9-5.2c.1.2.7.5.9.7.2.2.8.4.8.6Z" fill="#7451EB"/></g><g opacity=".6"><path opacity=".5" d="M157.7 210.5a7.504 7.504 0 0 0-.5 3.6c0-.2-.8-.4-.8-.6a7.701 7.701 0 0 1 .4-3.7c0 .1.9.6.9.7Z" fill="#7451EB"/></g><g opacity=".6"><path opacity=".5" d="M312.699 327.2a7.804 7.804 0 0 0 2.1 3c-.2-.1-.9.3-1.1.1a7.206 7.206 0 0 1-2-3.1c0 .1 1-.1 1 0Z" fill="#7451EB"/></g><g opacity=".6"><path opacity=".5" d="M160.9 220.3c-.1 2.4-1.1 4.4 0 6.7-.1-.3-.7-.4-.9-.6-1.1-2.3 0-4.4 0-6.7 0 .2.9.4.9.6Z" fill="#7451EB"/></g><g opacity=".6"><path opacity=".5" d="M170.1 231.1c-2.1 1.3-4.3 1-6.4 0l-.9-.7c2.2 1.1 4.3 1.4 6.4 0 .2 0 .8.7.9.7Z" fill="#7451EB"/></g><g opacity=".6"><path opacity=".5" d="M175.9 249.9c.9 1.7 2.3 3.4 1.9 5.4.1-.2-.9-.5-.8-.6.3-2.1-1.1-3.7-2-5.4.2.3.7.3.9.6Z" fill="#7451EB"/></g><g opacity=".6"><path opacity=".5" d="M177.2 272.401c-1.9 0-3.8-.1-5.2 1.5-1.4 1.6-.8-.6-.8-.6 1.3-1.6 3.2-1.5 5.1-1.5.3 0 .6.6.9.6Z" fill="#7451EB"/></g><g opacity=".6"><path opacity=".5" d="M232.9 353.1c1.8-.6 3.7-1 4.5-2.9l1 .4c-.8 1.9-2.7 2.3-4.5 2.8-1.8.5-.8-.4-1-.3Z" fill="#7451EB"/></g><g opacity=".6"><path opacity=".5" d="M171.4 270.5c-3-.1-7.9-2.3-10.1.9l-2.6-1.9c2.2-3.2 7.1-.9 10.1-.9.3 0 1.1.8 1.3.9.2.1 1 1 1.3 1Z" fill="#7451EB"/></g><g opacity=".6"><path opacity=".5" d="M133.2 234.301a18.303 18.303 0 0 1-1 7s-.9-.5-.9-.6a17.11 17.11 0 0 0 1.1-7.1c0 .2.8.5.8.7Z" fill="#7451EB"/></g><g opacity=".6"><path opacity=".5" d="M96.9 343.3v2l-.5-.4s-.4-.2-.4-.3v-1.9l.4.3.5.3Z" fill="#7451EB"/></g><g opacity=".6"><path opacity=".5" d="M152.9 335.6H151l.2-.4.3-.5h1.9l-.2.4-.3.5Z" fill="#7451EB"/></g><g opacity=".6"><path opacity=".5" d="m57.6 326.401-1.9.2c.1 0 .2-.4.3-.5.1-.1.2-.4.3-.4l1.9-.2c-.1 0-.3.4-.3.5 0 .1-.2.4-.3.4Z" fill="#7451EB"/></g><g opacity=".6"><path opacity=".5" d="M47.8 299.2a18.987 18.987 0 0 1-2-2h.8s.7-.201.7-.101a18.987 18.987 0 0 1 2 2c0-.1-.7.101-.7.101s-.7.199-.8.099v-.099Z" fill="#7451EB"/></g><g opacity=".6"><path opacity=".5" d="M211 248.601a7.81 7.81 0 0 0-4 4.7 4.6 4.6 0 0 1-2.1-.5 7.812 7.812 0 0 1 4-4.7c.3-.2.9.1 1.1.1l1 .4Z" fill="#7451EB"/></g><g opacity=".6"><path opacity=".5" d="M264.9 244a15.399 15.399 0 0 0-3.6-3.6c-.2-.1.6-.3.7-.3.1 0 1-.3 1.3-.1a15.808 15.808 0 0 1 3.7 3.6c.1.1-1 .4-1 .4s-.9.2-1.1 0Z" fill="#7451EB"/></g><g opacity=".6"><path opacity=".5" d="M312.699 289.3c1.9 1.1 3 3 4.7 4.3.2.1-.7.1-.9-.1-1.8-1.2-2.8-3.1-4.7-4.2-.2-.2.7-.1.9 0Z" fill="#7451EB"/></g><g opacity=".6"><path opacity=".5" d="M349 297.1c-.2.5-.6 1-.8 1.5-.2.5-1.1-.1-1.1-.2l.9-1.5c.1-.3 1.1.1 1 .2Z" fill="#7451EB"/></g><g opacity=".6"><path opacity=".5" d="M275.2 292.3a5.709 5.709 0 0 1 .2 5.1c0 .1-1-.3-.9-.4a6.309 6.309 0 0 0-.2-5.2c0 .1.8.2.9.5Z" fill="#7451EB"/></g><g opacity=".6"><path opacity=".5" d="m226.4 283.601-1.9 1.3c-.5.3-1.3-.3-.7-.7l1.9-1.3c.5-.3 1.3.3.7.7Z" fill="#7451EB"/></g><g opacity=".6"><path opacity=".5" d="M228.1 298.5c-1.8-1.2-3.8-2.7-4.5-4.8-.1-.3.6-1 .7-.7.7 2 2.6 3.5 4.4 4.6 1.8 1.1-.3 1.1-.6.9Z" fill="#7451EB"/></g><g opacity=".6"><path opacity=".5" d="M260.5 257.7a43.795 43.795 0 0 1-4.9 2.3c-.4.1.4-.5.5-.6a37.723 37.723 0 0 0 4.6-2c.6-.4.1.1-.2.3Z" fill="#7451EB"/></g><g opacity=".6"><path opacity=".5" d="M152.4 253.501c-1.6 1.3-3.1 2.4-5.3 2.2-.7 0 .3-.2.5-.2s2.8-1.2 3.8-2 1 0 1 0Z" fill="#7451EB"/></g><g opacity=".6"><path opacity=".5" d="M135.1 316.4a6.702 6.702 0 0 0-1.7-3.6c-.2-.2.3-.1.4-.1a.704.704 0 0 1 .6.2 7.408 7.408 0 0 1 1.7 3.7c0 .2-1 .1-1-.2Z" fill="#7451EB"/></g><g opacity=".6"><path opacity=".5" d="M96.6 256a3.798 3.798 0 0 0 1 3.2.505.505 0 0 1 .272.386.5.5 0 0 1-.972.214 4.892 4.892 0 0 1-1.3-4.1c.1-.7 1.1-.3 1 .3Z" fill="#7451EB"/></g><g opacity=".6"><path opacity=".5" d="M127.8 271.301c-1 1.8-.7 4.7 1.9 4.6 0 0-.4.8-.7.8-2.7.1-2.9-3-2-4.8l.5-.6c.1 0 .4-.2.3 0Z" fill="#7451EB"/></g><g opacity=".6"><path opacity=".5" d="M107.4 339.4a35.065 35.065 0 0 1-5.2 6.8 1.514 1.514 0 0 1-1.4.5.61.61 0 0 1-.277-.147.604.604 0 0 1-.023-.853 34.673 34.673 0 0 0 4.9-6.5 1.4 1.4 0 0 1 1.4-.6c.3 0 .9.3.6.8Z" fill="#7451EB"/></g><g opacity=".6"><path opacity=".5" d="M300.499 296.901c-.1 2.1-.1 4.2-.4 6.3a19.182 19.182 0 0 1-2.4 6.3c0-.1-2.7-1.8-2.6-1.9a18.17 18.17 0 0 0 2.3-6c.316-2.186.483-4.391.5-6.6.417.323.851.624 1.3.9.1.1 1.3.8 1.3 1Z" fill="#7451EB"/></g><path d="M177.514 204.878c-6.444 2.644-21.093 9.748-18.174 32.328 2.918 22.58-1.212 44.719-2.093 45.655-.881.936 70.768 2.864 70.768 2.864s-10.574-7.05-11.124-31.116c-.551-24.067 2.037-41.8-13.493-43.122-5.893-10.189-18.945-9.528-25.884-6.609Z" fill="#003668"/><path d="M222.508 323.119s3.139.881 9.638 0c6.499-.881 7.82-2.698 8.206-4.13.385-1.432.275-3.911.661-9.418.385-5.507-1.047-17.072-5.342-22.635-4.296-5.562-12.392-13.162-28.198-16.191-15.805-3.029-34.64-1.707-46.536 2.754s-17.073 9.637-20.432 17.458c-3.359 7.82-7.545 23.075-7.159 23.185.385.11 10.353 2.644 16.742 8.537.275 3.359-.11 12.281-.11 22.139 0 3.304-.992 21.643-.992 21.643h73.577l-.055-43.342Z" fill="#474BB4"/><path d="M167.601 271.296c.22.55 6.278 14.429 20.818 12.116 18.724-2.919 7.71 7.379 20.597 2.313 8.04-3.139 9.252-.11 12.722.55 3.469.661 13.162 6.609 13.052 15.972-.11 9.362-.11 18.724-.11 18.724s6.333-.991 6.608-1.817c.496-1.928 0-2.974.221-8.922.22-5.948-.716-17.403-5.948-23.901a39.438 39.438 0 0 0-18.67-13.108c-26.27-9.032-49.29-1.927-49.29-1.927ZM150.749 323.945l3.91-22.91s-1.763 20.212 3.084 25.168c4.846 4.957 28.527 5.342 43.893 3.194 7.214-.991 13.988-13.107 13.988-13.107s11.786 25.499 11.786 29.409 3.524 47.858 2.588 47.858l-87.345-4.13s5.838-60.635 8.096-65.482Z" fill="#343B93"/><path d="M240.352 319.76s-.276 11.675-.936 19.165c-.661 7.49-2.534 28.858-11.401 32.052-8.866 3.194-12.556-5.287-12.336-19 .22-13.713.661-31.667.661-31.667s12.061 2.424 24.012-.55ZM133.841 314.197s12.502-1.046 18.174 5.563c-.385 4.02-2.698 19.385-4.405 26.82-1.708 7.435-1.763 22.525-13.383 22.855-11.62.331-8.812-19.275-5.893-32.933 2.919-13.658 5.507-22.305 5.507-22.305Z" fill="#CC8269"/><path d="m234.624 320.806 5.728-1.046s.165 16.411-1.708 29.078c-1.872 12.667-4.35 24.012-14.704 24.012 1.927-2.754 9.638-13.108 9.528-27.592-.111-14.484 1.156-24.452 1.156-24.452Z" fill="#B26B5F"/><path d="M210.943 332.757s.22 3.855 3.029 6.223c2.809 2.368 8.206 6.499 11.565 10.299 4.406 4.956 9.363 15.2 4.847 20.321-6.058 6.885-17.513 2.589-21.919-8.536-4.406-11.125-5.287-16.467-7.435-19.716-2.148-3.249-.991-18.394 1.597-19.11 2.589-.716 10.078-.606 11.07 1.156.991 1.763-2.754 9.363-2.754 9.363Z" fill="#CC8269"/><path d="M211.384 334.905s.165 5.066 5.066 9.692c4.902 4.627 9.803 12.337 10.464 19.386.551 5.507-.606 8.977-4.185 8.922 5.177.11 11.069-2.919 11.069-11.621 0-6.113-5.011-11.234-12.666-16.742-9.308-6.663-9.748-9.637-9.748-9.637ZM148.435 316.951a257.8 257.8 0 0 1-6.719 26.215c-3.855 12.226-3.194 21.533-6.718 22.745-3.525 1.211-.937 4.35 2.918 3.304 3.855-1.046 7.545-5.342 9.363-15.806 1.817-10.464 4.13-30.675 4.736-33.649a16.532 16.532 0 0 0-3.58-2.809Z" fill="#B26B5F"/><path d="M114.786 333.583s-.771 3.635 0 5.507c.771 1.873 2.258 3.69 3.304 10.023 1.047 6.334 3.635 20.543 15.696 20.873 12.061.33 10.023-15.31 4.571-20.873-2.919-2.974-8.977-5.397-11.565-11.73-2.589-6.333-9.968-10.133-12.006-3.8Z" fill="#CC8269"/><path d="M127.728 339.31a30.523 30.523 0 0 0 5.617 10.85c4.021 4.791 5.618 12.061 3.25 15.64-2.368 3.58-7.655 3.14-7.655 3.14 2.753.826 9.197 2.863 12.721-2.809 3.525-5.673-.165-12.942-1.101-14.484-2.809-4.737-6.609-4.626-12.832-12.337Z" fill="#B26B5F"/><path d="M200.865 258.684s.55 14.649.881 15.31c.33.661-2.974 6.224-13.878 6.168-10.905-.055-12.832-6.994-12.832-6.994.881-2.533 3.249-8.701 1.982-14.539-1.266-5.838 23.847.055 23.847.055Z" fill="#CC8269"/><path d="M178.505 261.383c-.165.716 3.58 12.501 13.934 11.124 10.353-1.376 8.481-12.446 8.481-12.446l-22.415 1.322Z" fill="#A86252"/><path d="M200.149 255.6s1.156 10.574 0 16.687c-1.432 7.159-1.597 13.878 4.901 12.502 6.499-1.377 9.528-12.282 15.365-10.299-3.414-3.525-11.289-10.023-13.052-12.722-1.762-2.698-7.214-6.168-7.214-6.168Z" fill="#003668"/><path d="M202.297 231.754a37.672 37.672 0 0 0 2.313 8.26c1.321 3.085 1.487 6.058.605 12.447-.881 6.388-6.388 10.519-11.124 13.327-4.737 2.809-10.134.716-15.751-3.689-5.618-4.406-6.609-12.998-6.223-16.082.826-6.663 1.872-14.539 1.762-14.869-.11-.331 13.273-1.377 19.826-9.803 0 0 6.994 1.817 8.592 10.409Z" fill="#CC8269"/><path d="M177.294 233.13c-.496.276-.551.882.22.496a5.83 5.83 0 0 1 5.067-.661c2.588.826 4.185 1.047 2.863.331-1.321-.716-2.808-1.598-4.516-1.542-1.707.055-2.588.771-3.634 1.376ZM193.815 232.91c.992-.33 2.864-1.046 4.296-.771a7.605 7.605 0 0 1 2.919 1.267c.716.606 1.156.33.22-.496-.936-.826-1.817-1.817-3.745-1.762-1.927.055-2.919.826-3.69 1.156-.771.331-.826.881 0 .606ZM184.783 239.574s-1.762-2.533-3.689-2.423a7.538 7.538 0 0 0-4.516 1.762s.275.771 1.321.496c1.047-.276 1.212-.771 2.038-1.102a4.183 4.183 0 0 1 3.415.606c.991.826 1.211.936 1.431.661ZM193.815 239.133a4.402 4.402 0 0 1 1.568-1.55 4.4 4.4 0 0 1 2.122-.598c2.644-.11 3.249 1.653 4.296 1.653-.11.33-.606 1.046-1.322.661-.716-.386-1.542-1.377-3.139-1.267-1.597.11-2.589.771-2.919 1.156-.33.386-.771.221-.606-.055Z" fill="#003668"/><path d="M194.035 239.849c-.11.055 1.377-1.652 4.186.496-.33-.11-2.423-.991-4.186-.496ZM193.76 238.583c-.165.33-.33-3.14 4.406-2.864a7.931 7.931 0 0 0-4.406 2.864ZM180.873 236.27a5.008 5.008 0 0 1 3.745 2.973c-.055-1.487-.936-3.634-3.745-2.973ZM180.763 240.565c-.055.165 1.047-1.266 3.58-.551-.771-.881-3.36-1.266-3.58.551ZM186.656 238.913s.55 3.58-.826 5.507c1.101-.881 1.927-2.808.826-5.507ZM184.508 246.128s0 1.872 2.313 1.762a4.239 4.239 0 0 0 5.287 0c1.322-.11 1.982-.881 1.927-1.432.937 1.101-.11 2.368-1.101 2.478-1.101 2.203-4.957 2.258-6.003-.22-1.652-.496-2.754-1.212-2.423-2.588ZM180.763 248.386s-1.927 1.486-1.762 3.8c-.771-1.267-.936-3.14 1.762-3.8ZM198.221 247.394s1.763.716 1.487 3.47c.716-2.148.716-3.415-1.487-3.47ZM185.059 257.803s5.452 3.249 9.582-.331c-1.982 2.699-5.782 3.966-9.582.331Z" fill="#A86252"/><path d="M180.873 250.588s1.102 1.377 6.939 1.212c5.838-.165 9.252-1.212 10.409-2.203-.496 1.212-3.415 7.545-8.702 7.49-5.287-.055-8.481-5.507-8.646-6.499Z" fill="#003668"/><path d="M183.186 252.186c-.11 0 .606 1.486 2.148 1.652 1.542.165 7.6-.11 8.922-.661a2.101 2.101 0 0 0 1.377-1.707s-6.389 1.652-12.447.716ZM186.271 255.159s5.066.386 6.994-.11c-.716.661-5.012 2.038-6.994.11Z" fill="#fff"/><path d="M173.328 240.841s-2.037-2.754-3.359.605c-1.322 3.36.275 8.316 2.643 8.151 2.368-.165.716-8.756.716-8.756Z" fill="#CC8269"/><path d="M117.32 314.197s-2.534-3.194-2.919-5.011c-.386-1.818-.881-5.948 3.029-3.415 3.91 2.534 1.983 8.096-.11 8.426Z" fill="#B26B5F"/><path d="M207.804 274.38a.932.932 0 0 0-.385-.771.823.823 0 0 0-.606-.22l-88.722-1.212a.987.987 0 0 0-.551.22.881.881 0 0 0-.44.771l-.827 61.792a1.162 1.162 0 0 0 .386.826c.182.113.392.17.606.165l88.722 1.212a.996.996 0 0 0 .551-.221.874.874 0 0 0 .44-.771l.826-61.791Z" fill="#02C1B7"/><path d="m180.819 305.166 26.6-31.557a.823.823 0 0 0-.606-.22l-88.722-1.212a.987.987 0 0 0-.551.22l25.94 31.722-26.821 31.667c.182.113.392.17.606.165l88.722 1.212a.996.996 0 0 0 .551-.221l-25.719-31.776Z" fill="#00E2DC"/><path d="m203.727 278.045-82.711-1.155-.761 54.478 82.711 1.155.761-54.478Z" fill="#7451EB"/><path d="m124.314 278.841.441.826.881.165-.661.661.165.881-.826-.44-.826.44.165-.936-.661-.661.881-.11.441-.826Z" fill="#fff"/><path d="m122.992 283.963-.275 20.211-.22 20.157a5.177 5.177 0 0 1 5.066 5.232l34.145.44 34.145.441a5.018 5.018 0 0 1 1.983-3.965l-70.934-44.169a5.117 5.117 0 0 1-3.91 1.653Z" fill="#F3F3FF"/><path d="m196.514 279.777-34.145-.441-34.145-.44a5.061 5.061 0 0 1-1.322 3.414l70.934 44.169a5.173 5.173 0 0 1 3.249-1.102l.276-20.156.275-20.212a5.168 5.168 0 0 1-3.645-1.555 5.197 5.197 0 0 1-1.477-3.677ZM200.314 279.832l.441.881.936.11-.716.661.166.936-.827-.44-.826.385.166-.881-.661-.661.936-.165.385-.826ZM123.708 326.699l.386.881.936.11-.716.661.165.936-.826-.44-.826.385.165-.881-.66-.661.936-.165.44-.826ZM199.708 327.745l.386.826.936.166-.661.605.11.937-.826-.441-.826.441.165-.937-.66-.66.936-.111.44-.826Z" fill="#fff"/><path d="m152.787 306.377-5.618 14.815 5.673-.992 3.58 4.461 5.562-14.814-4.626-1.708-4.571-1.762Z" fill="#00E2DC"/><path d="m171.291 306.652 5.177 14.925-5.617-1.156-3.69 4.35-5.177-14.924 4.626-1.597 4.681-1.598Z" fill="#00E2DC"/><path d="m162.259 286.826.826-.661.661.771.881-.605.606.826.937-.496.495.936.991-.44.386.991.991-.33.331.991 1.046-.165.22.991.992-.055.11 1.046h1.046v1.047l1.047.11-.111 1.046.992.276-.221.991.992.33-.331.992.937.44-.386.992.881.495-.55.936.826.606-.606.881.771.716-.716.771.716.771-.826.716.606.826-.827.606.496.936-.881.496.385.991-.991.386.331.991-.992.331.165 1.046-.991.22.055 1.047-.991.11-.055.991h-1.047l-.11 1.047-1.046-.111-.22 1.047-1.047-.221-.33.937-.991-.331-.441.992-.936-.441-.551.881-.936-.551-.606.882-.826-.661-.716.771-.771-.716-.826.716-.661-.771-.881.55-.606-.826-.936.496-.496-.881-.991.385-.386-.936-.991.275-.33-.991-1.047.22-.22-1.046-.991.11-.111-1.046-1.046-.055v-1.047l-1.046-.11.11-1.046-.992-.22.221-1.047-.992-.33.331-.992-.936-.44.385-.936-.881-.551.551-.936-.826-.606.605-.826-.771-.716.716-.771-.716-.826.771-.661-.55-.881.826-.606-.496-.936.881-.496-.385-.936.936-.441-.275-.991.991-.331-.165-1.046.991-.165-.055-1.047.991-.11.055-1.046h1.047l.11-1.046 1.046.11.221-.992 1.046.221.33-.992.992.331.44-.936.937.385.55-.881.936.551.606-.826.826.605.716-.771.771.716Z" fill="#7451EB"/><path d="m141.165 297.662-13.162-.184-.013.931 13.162.183.013-.93ZM141.124 300.58l-13.161-.184-.013.93 13.161.184.013-.93ZM137.064 303.442l-9.196-.128-.013.93 9.196.129.013-.931ZM139.998 306.291l-12.17-.17-.013.931 12.17.17.013-.931ZM137.534 309.23l-9.692-.135-.013.931 9.692.135.013-.931ZM192.367 298.377l-9.361-.131-.013.931 9.361.13.013-.93ZM196.181 301.348l-13.161-.183-.013.93 13.161.184.013-.931ZM195.15 304.197l-12.17-.17-.013.931 12.17.17.013-.931ZM190.319 307.049l-7.434-.104-.013.931 7.434.104.013-.931ZM193.527 309.957l-10.628-.148-.013.93 10.628.149.013-.931Z" fill="#BEBAF7"/><path d="M169.418 300.925a8.478 8.478 0 0 0-2.423-5.948 8.26 8.26 0 0 0-10.243-1.101c-.331.165-.331.22-.11.44l2.257 2.809a.438.438 0 0 0 .551.11 3.974 3.974 0 0 1 3.849.243 3.971 3.971 0 0 1 1.822 3.398 3.97 3.97 0 0 1-1.927 3.34 3.97 3.97 0 0 1-3.854.123c-.22-.165-.33-.11-.496.055l-2.368 2.754c-.22.275-.22.331.055.496a8.157 8.157 0 0 0 5.508 1.377 8.262 8.262 0 0 0 7.379-8.096Z" fill="#fff"/><path d="M112.969 319.209s-1.762-2.643-2.038-4.957c-.275-2.313.331-4.24 3.25-4.295 2.919-.055 6.443-.11 7.82.551 1.377.66 1.817 1.707.826 2.478a8.47 8.47 0 0 1-2.753 1.542l-3.635 1.211s-1.983 3.58-3.47 3.47ZM204.665 316.951a7.65 7.65 0 0 1-1.046-3.91c.055-2.148 1.817-3.8 3.029-4.902 1.211-1.101 2.093-1.487 3.084-.44.991 1.046 5.122 5.177 4.185 7.214-.936 2.038-4.516 1.267-6.058 1.322a14.577 14.577 0 0 0-3.194.716Z" fill="#CC8269"/><path d="M203.619 313.316s1.046.11 1.266.771c.221.661.441 2.203-.22 2.203s-.936-1.707-1.046-2.974ZM120.183 310.067a1.378 1.378 0 0 0-.495 1.432c.165.881.385 1.267 1.872 1.267s1.873-.386 1.818-.992c-.056-.606-.937-1.542-3.195-1.707Z" fill="#E09885"/><path d="M122.497 313.261s-2.148.551-3.36.22c-1.211-.33-4.35-.495-5.176.111-.827.605-.551 3.084-.551 3.084s7.82-1.708 9.087-3.415Z" fill="#B26B5F"/><path d="M112.473 325.267s-1.927-1.046-2.147-2.864c-.221-1.817 2.753-6.333 3.524-7.379.771-1.047 2.423-2.148 5.342-1.102 2.919 1.046 5.948 1.873 6.995 2.754 1.046.881 1.431 2.698-.221 3.469-1.652.771-1.266.716-5.232.221-3.965-.496-4.571-1.267-5.782.055-1.212 1.321-2.479 4.846-2.479 4.846Z" fill="#CC8269"/><path d="M124.204 315.905a2.09 2.09 0 0 0-.827 1.321c-.11.771.166 1.267 1.487 1.598 1.322.33 2.369.22 2.369-.496s-.606-2.148-3.029-2.423Z" fill="#E09885"/><path d="M126.242 319.98a11.9 11.9 0 0 1-4.131-.771c-2.203-.826-5.067-2.423-6.113-2.258-1.046.165-3.415 4.186-3.415 4.186a39.49 39.49 0 0 1 6.114 0c2.918.275 6.443-.221 7.545-1.157Z" fill="#B26B5F"/><path d="M112.032 330.334a9.66 9.66 0 0 1-1.707-2.809c-.44-1.432.331-2.588 1.707-5.342 1.377-2.754 2.809-5.232 4.957-4.516a55.721 55.721 0 0 1 7.215 3.359c1.431.882 1.707 2.864-.276 3.415a11.45 11.45 0 0 1-5.507 0c-1.102-.331-6.389 5.893-6.389 5.893Z" fill="#CC8269"/><path d="M121.946 320.531s-.661 1.432-.441 1.927c.221.496 1.542.606 2.699.661 1.156.055 1.542-.606 1.156-1.101-.385-.496-.936-1.322-3.414-1.487Z" fill="#E09885"/><path d="M124.534 324.166s-2.698.44-4.571-.221c-1.872-.661-4.24-2.808-5.562-1.101a31.99 31.99 0 0 0-2.644 3.855l7.215-1.652s4.571-.055 5.562-.881Z" fill="#B26B5F"/><path d="M116.273 337.769s-3.359-3.085-4.956-4.902c-1.597-1.817-1.928-3.304.055-5.672 1.983-2.369 3.8-4.902 6.113-3.856 2.313 1.047 5.728 1.873 5.728 3.14 0 1.266-1.487 2.203-4.076 2.092-2.588-.11-2.203-.495-2.588-.165l-.165 1.212-.111 8.151Z" fill="#CC8269"/><path d="M120.845 324.771s-.716 1.377 0 1.818c.716.44 1.982.495 2.368.165.385-.33.055-1.652-2.368-1.983Z" fill="#E09885"/><path d="M122.717 327.58a7.61 7.61 0 0 1-3.69.331c-1.983-.331-2.754-.827-3.47.11-.716.936-1.762 1.707-1.156 2.037.605.331 1.982 2.644 1.982 2.644l.166-4.296s4.846.991 6.168-.826ZM205.436 314.638a28.247 28.247 0 0 1 1.817-3.359c1.157-1.432 1.818-1.432 3.029-.331 1.212 1.102 3.525 3.635 3.525 3.635s-5.562-.936-6.443-.496a9.113 9.113 0 0 1-1.928.551Z" fill="#B26B5F"/><path d="M205.326 321.632a6.167 6.167 0 0 1-1.101-3.524c.055-1.873 1.817-4.571 2.698-5.673.881-1.101 1.928-1.487 3.305-.661a39.554 39.554 0 0 1 5.397 4.516c.605.716.771 2.203-.221 2.864-.991.661-5.011 1.707-6.553 1.983l-3.525.495Z" fill="#CC8269"/><path d="M204.5 319.925c0-.11 1.377.441 1.157.881-.221.441-.441 1.542-1.157-.881Z" fill="#E09885"/><path d="M205.932 320.255s.495-1.431 1.156-2.808c.661-1.377 1.487-3.36 2.534-3.36 1.046 0 4.791 2.148 6.002 3.084-1.101.386-5.066 1.322-5.066 1.322l-4.626 1.762Z" fill="#B26B5F"/><path d="M207.859 325.322c-.606.331-2.423 1.212-3.084.661-.661-.551-1.156-1.212.276-4.075a46.092 46.092 0 0 1 3.524-5.673c.771-1.156.826-1.542 3.194-.771 2.369.771 4.296 1.432 4.571 2.864.276 1.432.386 2.643-2.808 4.24l-5.673 2.754Z" fill="#CC8269"/><path d="M204.665 322.679a1.435 1.435 0 0 1 1.377.495c.716.661-.331 2.258-.716 2.589-.386.33-1.432-.166-1.432-.937s.771-2.147.771-2.147Z" fill="#E09885"/><path d="M205.051 326.093s1.211 0 2.368-2.258c1.156-2.258 2.203-4.626 3.194-5.177.991-.55 4.626.055 5.783.826.22.771-.386 1.322-.992 2.148-.605.826-6.113 3.635-6.939 3.745-.826.11-1.817.991-3.414.716Z" fill="#B26B5F"/><path d="M207.419 329.012c-.165 0-1.047-.33-1.212-1.817-.165-1.487 1.377-2.919 1.983-4.076.606-1.156 1.927-3.91 3.194-3.8 1.267.11 4.296-.275 5.452 1.157 1.157 1.432.496 4.571-.716 6.223-1.211 1.652-1.927 3.8-3.304 6.003-1.377 2.203-3.58 6.113-5.673 6.278 0-2.148.276-9.968.276-9.968Z" fill="#CC8269"/><path d="M206.923 325.432c.055-.165.826.551 1.102 1.212.275.661-.276 2.148-.992 2.203-.716.055-1.597-.771-.11-3.415Z" fill="#E09885"/><path d="M207.804 329.122a4.241 4.241 0 0 0 2.699-2.313 9.845 9.845 0 0 1 1.652-2.533h2.423a6.764 6.764 0 0 0-1.377 1.321 31.475 31.475 0 0 1-2.148 2.369c-.66.716-2.478 1.487-3.249 1.156Z" fill="#B26B5F"/></g><path d="M367.5 184c0 101.344-82.156 183.5-183.5 183.5S.5 285.344.5 184 82.656.5 184 .5 367.5 82.656 367.5 184Z" stroke="#E0E0E0"/></svg>